<svg id="Layer_1" data-name="Layer 1" xmlns="http://www.w3.org/2000/svg" viewBox="0 0 19.26 19.26"><defs><style>.cls-1{fill:#aaa;}</style></defs><title>AnnotationsOff</title><circle class="cls-1" cx="9.63" cy="9.63" r="1.99"/><path class="cls-1" d="M882,708.4a9.63,9.63,0,1,0,9.63,9.63A9.63,9.63,0,0,0,882,708.4Zm5.66,15.29A8,8,0,1,1,890,718,8,8,0,0,1,887.66,723.69Z" transform="translate(-872.37 -708.4)"/><path class="cls-1" d="M882,711.72a6.13,6.13,0,1,0,6.13,6.13A6.13,6.13,0,0,0,882,711.72Zm3.22,9.35a4.55,4.55,0,1,1,1.34-3.22A4.55,4.55,0,0,1,885.22,721.07Z" transform="translate(-872.37 -708.4)"/></svg>