<?xml version="1.0" encoding="utf-8"?>
<!-- Generator: Adobe Illustrator 19.1.0, SVG Export Plug-In . SVG Version: 6.00 Build 0)  -->
<!DOCTYPE svg PUBLIC "-//W3C//DTD SVG 1.1//EN" "http://www.w3.org/Graphics/SVG/1.1/DTD/svg11.dtd">
<svg version="1.1" id="Layer_1" xmlns="http://www.w3.org/2000/svg" xmlns:xlink="http://www.w3.org/1999/xlink" x="0px" y="0px"
	 width="21.2px" height="21.2px" viewBox="0 0 21.2 21.2" style="enable-background:new 0 0 21.2 21.2;" xml:space="preserve">
<style type="text/css">
	.st0{fill:#CEEAEF;}
	.st1{fill:#0094BC;}
	.st2{fill:#CEEAEF;stroke:#0094BC;stroke-width:2;stroke-miterlimit:10;}
	.st3{fill:none;stroke:#0094BC;stroke-width:2;stroke-miterlimit:10;}
	.st4{fill:#6D6D6D;}
	.st5{opacity:0.46;}
	.st6{fill:#919191;}
	.st7{fill:#B5B5B5;}
	.st8{fill:#6D6E70;}
	.st9{fill:#AAAAAA;}
	.st10{fill:#FFFFFF;}
	.st11{fill:#898989;}
	.st12{fill:#EDEDED;}
	.st13{fill:#BABABA;}
</style>
<g>
	<circle class="st0" cx="11.2" cy="10.3" r="9.7"/>
	<circle class="st1" cx="10.6" cy="10.6" r="2.2"/>
	<path class="st1" d="M10.6,0C4.8,0,0,4.8,0,10.6c0,5.9,4.8,10.6,10.6,10.6c5.9,0,10.6-4.8,10.6-10.6C21.2,4.8,16.5,0,10.6,0z
		 M16.9,16.9c-1.6,1.6-3.8,2.6-6.3,2.6c-2.4,0-4.6-1-6.2-2.6c-1.6-1.6-2.6-3.8-2.6-6.2c0-2.4,1-4.6,2.6-6.3C6,2.8,8.2,1.8,10.6,1.8
		c2.4,0,4.6,1,6.3,2.6c1.6,1.6,2.6,3.8,2.6,6.3C19.5,13.1,18.5,15.3,16.9,16.9z"/>
	<path class="st1" d="M10.6,3.7c-3.7,0-6.8,3-6.8,6.8c0,3.7,3,6.8,6.8,6.8c3.7,0,6.8-3,6.8-6.8C17.4,6.7,14.4,3.7,10.6,3.7z
		 M14.2,14c-0.9,0.9-2.2,1.5-3.6,1.5c-1.4,0-2.6-0.6-3.6-1.5c-0.9-0.9-1.5-2.2-1.5-3.6c0-1.4,0.6-2.6,1.5-3.6C8,6,9.2,5.4,10.6,5.4
		c1.4,0,2.6,0.6,3.6,1.5c0.9,0.9,1.5,2.2,1.5,3.6C15.7,11.8,15.1,13.1,14.2,14z"/>
</g>
</svg>
