<?xml version="1.0" encoding="utf-8"?>
<!-- Generator: Adobe Illustrator 19.1.0, SVG Export Plug-In . SVG Version: 6.00 Build 0)  -->
<!DOCTYPE svg PUBLIC "-//W3C//DTD SVG 1.1//EN" "http://www.w3.org/Graphics/SVG/1.1/DTD/svg11.dtd">
<svg version="1.1" id="Layer_1" xmlns="http://www.w3.org/2000/svg" xmlns:xlink="http://www.w3.org/1999/xlink" x="0px" y="0px"
	 width="19.3px" height="19.3px" viewBox="0 0 19.3 19.3" style="enable-background:new 0 0 19.3 19.3;" xml:space="preserve">
<style type="text/css">
	.st0{fill:#CEEAEF;}
	.st1{fill:#0094BC;}
	.st2{fill:#CEEAEF;stroke:#0094BC;stroke-width:2;stroke-miterlimit:10;}
	.st3{fill:none;stroke:#0094BC;stroke-width:2;stroke-miterlimit:10;}
	.st4{fill:#6D6D6D;}
	.st5{opacity:0.46;}
	.st6{fill:#919191;}
	.st7{fill:#B5B5B5;}
	.st8{fill:#6D6E70;}
	.st9{fill:#AAAAAA;}
	.st10{fill:#FFFFFF;}
	.st11{fill:#898989;}
	.st12{fill:#EDEDED;}
	.st13{fill:#BABABA;}
</style>
<g>
	<circle class="st8" cx="9.6" cy="9.6" r="2"/>
	<path class="st8" d="M9.6,0C4.3,0,0,4.3,0,9.6c0,5.3,4.3,9.6,9.6,9.6c5.3,0,9.6-4.3,9.6-9.6S14.9,0,9.6,0z M15.3,15.3
		c-1.5,1.5-3.4,2.3-5.7,2.3c-2.2,0-4.2-0.9-5.7-2.3c-1.5-1.5-2.3-3.4-2.3-5.7C1.6,7.4,2.5,5.4,4,4c1.5-1.4,3.4-2.3,5.7-2.3
		c2.2,0,4.2,0.9,5.7,2.3c1.5,1.5,2.3,3.4,2.3,5.7C17.6,11.8,16.7,13.8,15.3,15.3z"/>
	<path class="st8" d="M9.6,3.3c-3.4,0-6.1,2.7-6.1,6.1c0,3.4,2.7,6.1,6.1,6.1c3.4,0,6.1-2.7,6.1-6.1C15.8,6.1,13,3.3,9.6,3.3z
		 M12.9,12.7c-0.8,0.8-2,1.3-3.2,1.3c-1.3,0-2.4-0.5-3.2-1.3c-0.8-0.8-1.3-2-1.3-3.2c0-1.3,0.5-2.4,1.3-3.2c0.8-0.8,2-1.3,3.2-1.3
		c1.3,0,2.4,0.5,3.2,1.3c0.8,0.8,1.3,2,1.3,3.2C14.2,10.7,13.7,11.8,12.9,12.7z"/>
</g>
</svg>
