<?xml version="1.0" encoding="UTF-8"?>
<svg width="16px" height="16px" viewBox="0 0 16 16" version="1.1" xmlns="http://www.w3.org/2000/svg" xmlns:xlink="http://www.w3.org/1999/xlink">
    <!-- Generator: Sketch 46.2 (44496) - http://www.bohemiancoding.com/sketch -->
    <title>camera-off</title>
    <desc>Created with Sketch.</desc>
    <defs></defs>
    <g id="Single-Resource" stroke="none" stroke-width="1" fill="none" fill-rule="evenodd" stroke-linecap="round" stroke-linejoin="round">
        <g id="Resources---Alert-Admin-of-No-Image-Icon" transform="translate(-265.000000, -270.000000)" stroke="#686868" stroke-width="2">
            <g id="camera-off" transform="translate(266.000000, 271.000000)">
                <path d="M0,0 L14,14" id="Shape"></path>
                <path d="M12.7272727,12.7272727 L1.27272727,12.7272727 C0.569819409,12.7272727 1.41301112e-16,12.1574533 0,11.4545455 L0,4.45454545 C-7.06505561e-17,3.75163759 0.569819409,3.18181818 1.27272727,3.18181818 L3.18181818,3.18181818 M5.09090909,1.27272727 L8.90909091,1.27272727 L10.1818182,3.18181818 L12.7272727,3.18181818 C13.4301806,3.18181818 14,3.75163759 14,4.45454545 L14,10.3981818 M9.08727273,9.08727273 C8.50972645,9.9313175 7.48310083,10.3477378 6.48076561,10.1445251 C5.47843039,9.94131246 4.69505117,9.15793324 4.49183852,8.15559802 C4.28862587,7.1532628 4.70504614,6.12663718 5.54909091,5.54909091" id="Shape"></path>
            </g>
        </g>
    </g>
</svg>