<?xml version="1.0" encoding="utf-8"?>
<!-- Generator: Adobe Illustrator 19.1.0, SVG Export Plug-In . SVG Version: 6.00 Build 0)  -->
<!DOCTYPE svg PUBLIC "-//W3C//DTD SVG 1.1//EN" "http://www.w3.org/Graphics/SVG/1.1/DTD/svg11.dtd">
<svg version="1.1" id="Layer_1" xmlns="http://www.w3.org/2000/svg" xmlns:xlink="http://www.w3.org/1999/xlink" x="0px" y="0px"
	 width="17.4px" height="17.4px" viewBox="0 0 17.4 17.4" style="enable-background:new 0 0 17.4 17.4;" xml:space="preserve">
<style type="text/css">
	.st0{fill:#CEEAEF;}
	.st1{fill:#0094BC;}
	.st2{fill:#CEEAEF;stroke:#0094BC;stroke-width:2;stroke-miterlimit:10;}
	.st3{fill:none;stroke:#0094BC;stroke-width:2;stroke-miterlimit:10;}
	.st4{fill:#6D6D6D;}
	.st5{opacity:0.46;}
	.st6{fill:#919191;}
	.st7{fill:#B5B5B5;}
	.st8{fill:#6D6E70;}
	.st9{fill:#AAAAAA;}
	.st10{fill:#FFFFFF;}
	.st11{fill:#898989;}
	.st12{fill:#EDEDED;}
	.st13{fill:#BABABA;}
</style>
<g>
	<g>
		<path class="st6" d="M8.7,1c4.3,0,7.7,3.5,7.7,7.7s-3.5,7.7-7.7,7.7S1,13,1,8.7S4.5,1,8.7,1 M8.7,0C3.9,0,0,3.9,0,8.7
			c0,4.8,3.9,8.7,8.7,8.7c4.8,0,8.7-3.9,8.7-8.7C17.4,3.9,13.5,0,8.7,0L8.7,0z"/>
	</g>
	<g>
		<g>
			<rect x="3.8" y="8.3" transform="matrix(0.7071 0.7071 -0.7071 0.7071 8.8645 -3.8021)" class="st6" width="10.4" height="1"/>
		</g>
		<g>
			<rect x="8.5" y="3.6" transform="matrix(0.7071 0.7071 -0.7071 0.7071 8.8645 -3.8021)" class="st6" width="1" height="10.4"/>
		</g>
	</g>
</g>
</svg>
