<?xml version="1.0" encoding="UTF-8" standalone="no"?>
<svg width="157px" height="44px" viewBox="0 0 157 44" version="1.1" xmlns="http://www.w3.org/2000/svg" xmlns:xlink="http://www.w3.org/1999/xlink" xmlns:sketch="http://www.bohemiancoding.com/sketch/ns">
    <!-- Generator: sketchtool 3.5 (25227) - http://www.bohemiancoding.com/sketch -->
    <title>FooterLogo - Matrix</title>
    <desc>Created with sketchtool.</desc>
    <defs></defs>
    <g id="Assets" stroke="none" stroke-width="1" fill="none" fill-rule="evenodd" sketch:type="MSPage">
        <g sketch:type="MSArtboardGroup" transform="translate(-854.000000, -4718.000000)" id="Footer" fill="#FFFFFF">
            <g sketch:type="MSLayerGroup" transform="translate(195.000000, 4616.000000)">
                <g id="FooterLogo---Matrix" transform="translate(658.500000, 102.402344)" sketch:type="MSShapeGroup">
                    <path d="M25.966,43.097 L25.562,25.338 L16.218,39.496 L15.611,39.496 L6.186,25.298 L5.862,43.097 L0.887,43.097 L2.141,13.082 L2.909,13.001 L16.055,32.661 L28.878,13.001 L29.688,13.082 L30.941,43.097 L25.966,43.097" id="Fill-1"></path>
                    <path d="M56.344,43.097 L53.471,36.301 L41.74,36.301 L38.87,43.097 L33.651,43.097 L47.324,13.042 L48.051,13.042 L61.684,43.097 L56.344,43.097 L56.344,43.097 Z M47.606,22.386 L43.4,32.296 L51.814,32.296 L47.606,22.386 L47.606,22.386 Z" id="Fill-2"></path>
                    <path d="M72.201,18.057 L72.201,43.097 L67.144,43.097 L67.144,18.057 L57.719,18.057 L57.719,13.445 L81.585,13.445 L81.585,18.057 L72.201,18.057" id="Fill-3"></path>
                    <path d="M101.122,43.097 L94.65,32.417 C94.38,32.444 94.124,32.458 93.881,32.458 L93.072,32.458 C92.587,32.458 92.094,32.451 91.596,32.438 C91.096,32.424 90.605,32.403 90.12,32.376 L90.12,43.097 L85.063,43.097 L85.063,13.729 C86.25,13.595 87.47,13.481 88.724,13.386 C89.978,13.291 91.359,13.244 92.87,13.244 C94.974,13.244 96.787,13.486 98.31,13.972 C99.834,14.457 101.094,15.119 102.092,15.954 C103.089,16.791 103.825,17.774 104.297,18.907 C104.769,20.04 105.005,21.267 105.005,22.588 C105.005,24.529 104.506,26.242 103.509,27.726 C102.51,29.209 101.082,30.355 99.221,31.164 L106.988,43.097 L101.122,43.097 L101.122,43.097 Z M99.666,22.83 C99.666,21.321 99.126,20.1 98.048,19.17 C96.969,18.239 95.46,17.774 93.518,17.774 C92.897,17.774 92.304,17.788 91.737,17.815 C91.171,17.842 90.631,17.91 90.12,18.017 L90.12,28.131 C90.578,28.185 91.056,28.225 91.556,28.251 C92.054,28.278 92.546,28.291 93.033,28.291 C95.243,28.291 96.901,27.806 98.007,26.835 C99.112,25.865 99.666,24.529 99.666,22.83 L99.666,22.83 Z" id="Fill-4"></path>
                    <path d="M111.639,13.445 L116.696,13.445 L116.696,43.096 L111.639,43.096 L111.639,13.445 Z" id="Fill-5"></path>
                    <path d="M120.943,13.445 L127.011,13.445 L147.211,43.097 L141.145,43.097 L120.943,13.445" id="Fill-6"></path>
                    <path d="M157.425,0.587 L151.969,0.587 L151.463,1.294 L156.919,1.294 L157.425,0.587" id="Fill-7"></path>
                    <path d="M150.497,2.642 L155.953,2.642 L156.458,1.935 L151.002,1.935 L150.497,2.642" id="Fill-8"></path>
                    <path d="M149.53,3.99 L154.985,3.99 L155.493,3.284 L150.037,3.284 L149.53,3.99" id="Fill-9"></path>
                    <path d="M148.564,5.338 L154.019,5.338 L154.525,4.631 L149.07,4.631 L148.564,5.338" id="Fill-10"></path>
                    <path d="M147.598,6.686 L153.053,6.686 L153.559,5.979 L148.104,5.979 L147.598,6.686" id="Fill-11"></path>
                    <path d="M146.631,8.034 L152.086,8.034 L152.594,7.328 L147.138,7.328 L146.631,8.034" id="Fill-12"></path>
                    <path d="M145.665,9.381 L151.121,9.381 L151.628,8.674 L146.171,8.674 L145.665,9.381" id="Fill-13"></path>
                    <path d="M144.699,10.729 L150.155,10.729 L150.661,10.023 L145.206,10.023 L144.699,10.729" id="Fill-14"></path>
                    <path d="M143.733,12.077 L149.189,12.077 L149.694,11.371 L144.239,11.371 L143.733,12.077" id="Fill-15"></path>
                    <path d="M142.766,13.424 L148.222,13.424 L148.728,12.718 L143.272,12.718 L142.766,13.424" id="Fill-16"></path>
                    <path d="M141.8,14.772 L147.255,14.772 L147.762,14.065 L142.307,14.065 L141.8,14.772" id="Fill-17"></path>
                    <path d="M140.834,16.12 L146.289,16.12 L146.796,15.413 L141.34,15.413 L140.834,16.12" id="Fill-18"></path>
                    <path d="M139.867,17.467 L145.323,17.467 L145.829,16.761 L140.374,16.761 L139.867,17.467" id="Fill-19"></path>
                    <path d="M138.9,18.816 L144.356,18.816 L144.863,18.109 L139.406,18.109 L138.9,18.816" id="Fill-20"></path>
                    <path d="M137.935,20.164 L143.389,20.164 L143.897,19.456 L138.441,19.456 L137.935,20.164" id="Fill-21"></path>
                    <path d="M136.969,21.511 L142.424,21.511 L142.93,20.806 L137.475,20.806 L136.969,21.511" id="Fill-22"></path>
                    <path d="M136.002,22.859 L141.458,22.859 L141.964,22.153 L136.509,22.153 L136.002,22.859" id="Fill-23"></path>
                    <path d="M135.037,24.206 L140.491,24.206 L140.998,23.5 L135.543,23.5 L135.037,24.206" id="Fill-24"></path>
                    <path d="M134.069,25.555 L139.526,25.555 L140.032,24.848 L134.576,24.848 L134.069,25.555" id="Fill-25"></path>
                    <path d="M133.103,26.902 L138.558,26.902 L139.065,26.196 L133.61,26.196 L133.103,26.902" id="Fill-26"></path>
                    <path d="M132.137,28.251 L137.592,28.251 L138.1,27.543 L132.643,27.543 L132.137,28.251" id="Fill-27"></path>
                    <path d="M131.17,29.598 L136.627,29.598 L137.131,28.892 L131.677,28.892 L131.17,29.598" id="Fill-28"></path>
                    <path d="M130.204,30.946 L135.659,30.946 L136.167,30.239 L130.711,30.239 L130.204,30.946" id="Fill-29"></path>
                    <path d="M129.238,32.293 L134.693,32.293 L135.2,31.587 L129.745,31.587 L129.238,32.293" id="Fill-30"></path>
                    <path d="M128.272,33.641 L133.726,33.641 L134.234,32.936 L128.779,32.936 L128.272,33.641" id="Fill-31"></path>
                    <path d="M127.304,34.989 L132.761,34.989 L133.268,34.283 L127.812,34.283 L127.304,34.989" id="Fill-32"></path>
                    <path d="M126.339,36.337 L131.794,36.337 L132.302,35.631 L126.846,35.631 L126.339,36.337" id="Fill-33"></path>
                    <path d="M125.373,37.685 L130.829,37.685 L131.335,36.979 L125.879,36.979 L125.373,37.685" id="Fill-34"></path>
                    <path d="M124.406,39.033 L129.862,39.033 L130.368,38.326 L124.913,38.326 L124.406,39.033" id="Fill-35"></path>
                    <path d="M123.441,40.38 L128.896,40.38 L129.402,39.674 L123.946,39.674 L123.441,40.38" id="Fill-36"></path>
                    <path d="M122.474,41.729 L127.929,41.729 L128.436,41.022 L122.98,41.022 L122.474,41.729" id="Fill-37"></path>
                    <path d="M121.508,43.077 L126.963,43.077 L127.469,42.369 L122.015,42.369 L121.508,43.077" id="Fill-38"></path>
                </g>
            </g>
        </g>
    </g>
</svg>