<?xml version="1.0" encoding="utf-8"?>
<!-- Generator: Adobe Illustrator 19.1.0, SVG Export Plug-In . SVG Version: 6.00 Build 0)  -->
<!DOCTYPE svg PUBLIC "-//W3C//DTD SVG 1.1//EN" "http://www.w3.org/Graphics/SVG/1.1/DTD/svg11.dtd">
<svg version="1.1" id="Layer_1" xmlns="http://www.w3.org/2000/svg" xmlns:xlink="http://www.w3.org/1999/xlink" x="0px" y="0px"
	 width="194.7px" height="194.7px" viewBox="0 0 194.7 194.7" style="enable-background:new 0 0 194.7 194.7;" xml:space="preserve"
	>
<style type="text/css">
	.st0{fill:#CEEAEF;}
	.st1{fill:#0094BC;}
	.st2{fill:#CEEAEF;stroke:#0094BC;stroke-width:2;stroke-miterlimit:10;}
	.st3{fill:none;stroke:#0094BC;stroke-width:2;stroke-miterlimit:10;}
	.st4{fill:#6D6D6D;}
	.st5{opacity:0.46;}
	.st6{fill:#919191;}
	.st7{fill:#B5B5B5;}
	.st8{fill:#6D6E70;}
	.st9{fill:#AAAAAA;}
	.st10{fill:#FFFFFF;}
	.st11{fill:#898989;}
	.st12{opacity:0.44;}
	.st13{fill:#E2E2E2;}
	.st14{fill:#1FB8DB;stroke:#0094BC;stroke-width:4;stroke-miterlimit:10;}
	.st15{fill:#22C6A6;stroke:#02997C;stroke-width:4;stroke-miterlimit:10;}
	.st16{fill:#E08C4C;stroke:#C47139;stroke-width:4;stroke-miterlimit:10;}
	.st17{fill:#9C6DB2;stroke:#8658A0;stroke-width:4;stroke-miterlimit:10;}
	.st18{fill:#F4F4F4;}
	.st19{fill:#D1D1D1;}
	.st20{fill:none;stroke:#B2B2B2;stroke-miterlimit:10;}
</style>
<g>
	<path class="st18" d="M194.2,97.4c0,28.1-12,53.4-31.2,71.1c-0.3,0.2-0.5,0.5-0.8,0.7c-17.1,15.5-39.9,25-64.9,25
		c-24.3,0-46.5-9-63.5-23.7c-0.3-0.2-0.5-0.4-0.8-0.7c-20-17.8-32.7-43.6-32.7-72.5c0-53.5,43.4-96.9,96.9-96.9
		C150.8,0.5,194.2,43.9,194.2,97.4z"/>
	<g>
		<path class="st19" d="M98.2,53.4c-21.5,0-39,17.5-39,39c0,21.4,17.5,38.9,39,38.9c21.5,0,39-17.4,39-38.9
			C137.2,70.9,119.7,53.4,98.2,53.4z M131.4,126.5l-1.2-0.7l-0.9,1.1c-8.2,8.6-19.2,13.3-31,13.3c-11.8,0-22.8-4.7-31-13.3l-1-1.1
			l-1.2,0.7c-15.9,9.2-26.8,24.7-31.1,44.1c17,14.7,39.2,23.7,63.5,23.7c24.9,0,47.8-9.5,64.9-25C157.8,150.4,147,135.4,131.4,126.5
			z"/>
	</g>
	<path class="st20" d="M194.2,97.4c0,28.1-12,53.4-31.2,71.1c-0.3,0.2-0.5,0.5-0.8,0.7c-17.1,15.5-39.9,25-64.9,25
		c-24.3,0-46.5-9-63.5-23.7c-0.3-0.2-0.5-0.4-0.8-0.7c-20-17.8-32.7-43.6-32.7-72.5c0-53.5,43.4-96.9,96.9-96.9
		C150.8,0.5,194.2,43.9,194.2,97.4z"/>
</g>
</svg>
