<?xml version="1.0" encoding="utf-8"?>
<!-- Generator: Adobe Illustrator 19.1.0, SVG Export Plug-In . SVG Version: 6.00 Build 0)  -->
<!DOCTYPE svg PUBLIC "-//W3C//DTD SVG 1.1//EN" "http://www.w3.org/Graphics/SVG/1.1/DTD/svg11.dtd">
<svg version="1.1" id="Layer_1" xmlns="http://www.w3.org/2000/svg" xmlns:xlink="http://www.w3.org/1999/xlink" x="0px" y="0px"
	 width="18.3px" height="19.5px" viewBox="0 0 18.3 19.5" style="enable-background:new 0 0 18.3 19.5;" xml:space="preserve">
<style type="text/css">
	.st0{fill:#CEEAEF;}
	.st1{fill:#0094BC;}
	.st2{fill:#CEEAEF;stroke:#0094BC;stroke-width:2;stroke-miterlimit:10;}
	.st3{fill:none;stroke:#0094BC;stroke-width:2;stroke-miterlimit:10;}
	.st4{fill:#6D6D6D;}
	.st5{opacity:0.46;}
	.st6{fill:#919191;}
	.st7{fill:#B5B5B5;}
	.st8{fill:#6D6E70;}
	.st9{fill:#AAAAAA;}
	.st10{fill:#FFFFFF;}
	.st11{fill:#898989;}
	.st12{fill:#EDEDED;}
	.st13{fill:#BABABA;}
</style>
<g>
	<g>
		<path class="st7" d="M7.4,3C3.3,3,0,5.5,0,8.7c0,1.5,0.8,2.9,2.1,4c-0.1,1-0.3,2.3-1.1,3c1.4,0,2.9-0.9,3.9-1.6
			c0.8,0.2,1.6,0.3,2.5,0.3c4.1,0,7.4-2.5,7.4-5.7C14.8,5.5,11.5,3,7.4,3z"/>
		<path class="st7" d="M17.2,9.2c0.6-0.8,1-1.8,1-2.8c0-3.1-3.3-5.7-7.4-5.7C9,0.7,7.4,1.2,6.1,2C6.7,1.9,7.3,1.9,8,1.9
			c4.4,0,8,2.8,8,6.3c0,1.4-0.6,2.6-1.5,3.6c0.9,0.7,2.4,1.6,3.9,1.6C17.3,12.4,17.2,10.2,17.2,9.2z"/>
	</g>
</g>
</svg>
