<svg id="Layer_1" data-name="Layer 1" xmlns="http://www.w3.org/2000/svg" viewBox="0 0 252 62"><defs><style>.cls-1{fill:#fff;}.cls-2{fill:none;}</style></defs><title>Footer-NEH</title><path class="cls-1" d="M89.26,42.52c-0.62,0-2.78.09-3.27,0.09V42a1.93,1.93,0,0,0,1.5-1.77V33.64H77v6.63A2,2,0,0,0,78.57,42V42.6c-0.49,0-2.69-.09-3.31-0.09s-2.6.09-3.09,0.09V42a1.94,1.94,0,0,0,1.5-1.77V26.44a2,2,0,0,0-1.5-1.77V24.1c0.49,0,2.56.09,3.09,0.09s2.82-.09,3.31-0.09v0.57A2,2,0,0,0,77,26.44v5.44H87.5V26.44A1.89,1.89,0,0,0,86,24.67V24.1c0.49,0,2.65.09,3.27,0.09s2.65-.09,3.13-0.09v0.57a2,2,0,0,0-1.55,1.77V40.26A2,2,0,0,0,92.4,42V42.6c-0.49,0-2.6-.09-3.13-0.09"/><path class="cls-1" d="M111.94,42.12c-0.71.48-1.63,1.23-1.63,1.23a6,6,0,0,1-2-3.4,9.14,9.14,0,0,1-6.44,3c-3.79,0-5.42-2.42-5.42-5.38V28.8c0-1.41-.79-2.07-2.25-2.39V25.93l5.12-2h0.48V35.06c0,3.13.66,5.61,3.8,5.61a6.28,6.28,0,0,0,4.59-2.43V28.8c0-1.41-.79-2.07-2.25-2.39V25.93l5.12-2h0.49V38.72c0,1.41.44,1.76,1,1.76a2.53,2.53,0,0,0,1-.18l0.31,0.7s-0.93.49-1.85,1.1"/><path class="cls-1" d="M141.31,42.52c-0.57,0-3,.09-3.57.09V42.08c0.93-.4,1.94-0.88,1.94-1.72v-8.6c0-3.13-.18-5.61-3.31-5.61a6.82,6.82,0,0,0-4.5,2,9,9,0,0,1,0,1.1V40.36c0,0.88.93,1.28,2,1.72V42.6c-0.57,0-3.13-.09-3.71-0.09s-3,.09-3.57.09V42.08c0.93-.4,1.94-0.88,1.94-1.72v-8.6c0-3.13-.18-5.61-3.31-5.61a5.9,5.9,0,0,0-4.41,2.43V40.36c0,0.88.92,1.28,2,1.72V42.6c-0.58,0-3.13-.09-3.7-0.09s-3,.09-3.57.09V42.08c0.93-.4,1.94-0.88,1.94-1.72V28.8c0-1.41-.79-2.07-2.25-2.38V25.93l4.94-2h0.48l0.18,2.87c1.59-1.5,3.4-2.87,6.13-2.87s4,1.19,4.55,2.87a9.76,9.76,0,0,1,6.57-2.87c3.79,0,4.94,2.43,4.94,5.38V40.36c0,0.88.92,1.28,2,1.72V42.6c-0.57,0-3.13-.09-3.71-0.09"/><path class="cls-1" d="M161.56,42.12c-0.71.48-1.63,1.23-1.63,1.23a7.22,7.22,0,0,1-1.81-2.78,7.69,7.69,0,0,1-5.69,2.34c-3.36,0-5.74-1.59-5.74-5.16,0-3.35,3.18-5.07,6.4-5.65,0.88-.13,3.7-0.18,4.67-0.18V29.06c0-2-1.23-3.62-3.92-3.62a5.09,5.09,0,0,0-4.68,2.91h-0.57V24.78a21.5,21.5,0,0,1,6.22-.88c5.25,0,6.31,2.69,6.31,5.65v9.18c0,1.41.44,1.76,1,1.76a2.56,2.56,0,0,0,1-.18l0.31,0.7s-0.93.49-1.85,1.1m-3.8-8.78h-2.6c-2.61,0-4.9,1.41-4.9,4.24a3,3,0,0,0,3,3.22,5.34,5.34,0,0,0,4.46-2.47v-5Z"/><path class="cls-1" d="M180.5,42.52c-0.57,0-3,.09-3.57.09V42.08c0.93-.4,1.94-0.88,1.94-1.72v-8.6c0-3.13-1.24-5.61-4.37-5.61a6.28,6.28,0,0,0-4.59,2.43V40.36c0,0.88.93,1.28,2,1.72V42.6c-0.57,0-3.13-.09-3.71-0.09s-3,.09-3.57.09V42.08c0.93-.4,1.94-0.88,1.94-1.72V28.8c0-1.41-.79-2.07-2.25-2.38V25.93l4.94-2h0.48l0.18,2.87a9,9,0,0,1,6.31-2.87c3.79,0,6,2.43,6,5.38V40.36c0,0.88.93,1.28,2,1.72V42.6c-0.57,0-3.13-.09-3.71-0.09"/><path class="cls-1" d="M189.85,42.52c-0.57,0-3,.09-3.57.09V42.08c0.93-.4,1.94-0.88,1.94-1.72V28.8c0-1.41-.79-2.07-2.25-2.38V25.93l5.12-2h0.48V40.36c0,0.88.92,1.28,2,1.72V42.6c-0.57,0-3.13-.09-3.71-0.09"/><path class="cls-1" d="M202.16,42.91c-2.12,0-4.19-1-4.19-5.16V25.88h-2.74V24.83l2.38-.71a8.32,8.32,0,0,0,2.25-5h1.46v5.07h5.43v1.68h-5.43V37.18c0,2.34.75,3.13,2.12,3.13A3.6,3.6,0,0,0,206.18,39l0.71,0.66c-0.48.93-2.21,3.22-4.72,3.22"/><path class="cls-1" d="M212.75,42.52c-0.57,0-3,.09-3.57.09V42.08c0.93-.4,1.94-0.88,1.94-1.72V28.8c0-1.41-.79-2.07-2.25-2.38V25.93l5.12-2h0.49V40.36c0,0.88.93,1.28,2,1.72V42.6c-0.57,0-3.14-.09-3.71-0.09"/><path class="cls-1" d="M234.68,31.93H222.15c-0.57,5.07,2.25,8.87,6.44,8.87,2.38,0,4-.4,5.12-1.54l0.75,0.84A8.11,8.11,0,0,1,228,42.91c-6.22,0-9.53-3.79-9.53-9.53s4-9.48,8.82-9.48,7.72,3.31,7.5,7.1a2.92,2.92,0,0,1-.13.93m-7.32-6.44c-2.91,0-4.63,2.69-5,4.94h8.91c0.31-2.2-1.1-4.94-3.88-4.94"/><path class="cls-1" d="M243.64,42.91a21.77,21.77,0,0,1-5.56-.88V38.15h0.57c1.23,2.21,2.64,3.18,4.94,3.18,2.52,0,3.88-.93,3.88-2.56a2.3,2.3,0,0,0-1.46-2.2l-5.47-2.69a4.65,4.65,0,0,1-2.87-4.41c0-3.62,3.27-5.56,6.75-5.56a21.9,21.9,0,0,1,5.56.88v3.75h-0.57a5.53,5.53,0,0,0-4.9-3c-2.16,0-3.53,1.15-3.53,2.78,0,1.41.53,2.12,2,2.82l5.56,2.69a4,4,0,0,1,2.16,3.71c0,3.48-2.73,5.42-7.06,5.42"/><rect class="cls-2" width="252" height="62"/><path class="cls-1" d="M73.33,13.31h1.42l2,3.3h0v-3.3h1v4.74H76.46l-2.07-3.38h0v3.38h-1V13.31Z"/><path class="cls-1" d="M80.55,13.31h0.86l2.06,4.74H82.3l-0.41-1H80l-0.4,1H78.5ZM81,14.69l-0.58,1.47h1.16Z"/><path class="cls-1" d="M84.46,14.24H83.11V13.31h3.75v0.92H85.51v3.82h-1V14.24Z"/><path class="cls-1" d="M87.58,13.31h1v4.74h-1V13.31Z"/><path class="cls-1" d="M92.08,13.19a2.4,2.4,0,0,1,2.56,2.49,2.56,2.56,0,0,1-5.12,0A2.4,2.4,0,0,1,92.08,13.19Zm0,4a1.43,1.43,0,0,0,1.47-1.53,1.47,1.47,0,1,0-2.95,0A1.43,1.43,0,0,0,92.08,17.21Z"/><path class="cls-1" d="M95.55,13.31H97l2,3.3h0v-3.3h1v4.74H98.68l-2.07-3.38h0v3.38h-1V13.31Z"/><path class="cls-1" d="M102.77,13.31h0.86l2.06,4.74h-1.18l-0.41-1h-1.84l-0.39,1h-1.15Zm0.4,1.38-0.58,1.47h1.16Z"/><path class="cls-1" d="M106.42,13.31h1v3.78h1.94v1h-3V13.31Z"/><path class="cls-1" d="M111.86,13.31h3.22v1H112.9v0.88H115v1H112.9v1h2.3v1h-3.34V13.31Z"/><path class="cls-1" d="M116.24,13.31h1.42l2,3.3h0v-3.3h1v4.74h-1.37l-2.07-3.38h0v3.38h-1V13.31Z"/><path class="cls-1" d="M121.9,13.31h1.57c1.53,0,2.81.65,2.81,2.38a2.42,2.42,0,0,1-2.67,2.36H121.9V13.31Zm1,3.78h0.54a1.43,1.43,0,1,0,.07-2.81h-0.62v2.81Z"/><path class="cls-1" d="M129.49,13.19a2.4,2.4,0,0,1,2.56,2.49,2.56,2.56,0,0,1-5.12,0A2.4,2.4,0,0,1,129.49,13.19Zm0,4A1.43,1.43,0,0,0,131,15.69a1.48,1.48,0,1,0-2.95,0A1.43,1.43,0,0,0,129.49,17.21Z"/><path class="cls-1" d="M132.47,13.31h1.14l0.76,3h0l1-3h1l1,3.12h0l0.8-3.12h1.06l-1.39,4.74h-0.93l-1-3.28h0l-1,3.28h-0.9Z"/><path class="cls-1" d="M139.86,13.31h1.58l1.09,3.09h0l1.1-3.09h1.57v4.74h-1V14.42h0l-1.25,3.64h-0.8l-1.2-3.64h0v3.64h-1V13.31Z"/><path class="cls-1" d="M146.42,13.31h3.22v1h-2.18v0.88h2.06v1h-2.06v1h2.3v1h-3.34V13.31Z"/><path class="cls-1" d="M150.81,13.31h1.42l2,3.3h0v-3.3h1v4.74h-1.37l-2.07-3.38h0v3.38h-1V13.31Z"/><path class="cls-1" d="M157.39,14.24H156V13.31h3.75v0.92h-1.35v3.82h-1V14.24Z"/><path class="cls-1" d="M162.21,13.31h3.18v1h-2.14v1h2v1h-2v1.85h-1V13.31Z"/><path class="cls-1" d="M168.65,13.19a2.4,2.4,0,0,1,2.56,2.49,2.56,2.56,0,0,1-5.12,0A2.4,2.4,0,0,1,168.65,13.19Zm0,4a1.43,1.43,0,0,0,1.47-1.53,1.48,1.48,0,1,0-2.95,0A1.43,1.43,0,0,0,168.65,17.21Z"/><path class="cls-1" d="M172.12,13.31H174c1,0,1.79.33,1.79,1.44a1.22,1.22,0,0,1-1,1.3l1.21,2h-1.25l-1-1.9h-0.52v1.9h-1V13.31Zm1,2h0.62c0.38,0,.88,0,0.88-0.53s-0.43-.55-0.81-0.55h-0.68v1.08Z"/><path class="cls-1" d="M179.23,14.24h-1.35V13.31h3.75v0.92h-1.35v3.82h-1V14.24Z"/><path class="cls-1" d="M182.36,13.31h1v1.77h2V13.31h1v4.74h-1V16h-2v2h-1V13.31Z"/><path class="cls-1" d="M187.68,13.31h3.22v1h-2.18v0.88h2.06v1h-2.06v1H191v1h-3.34V13.31Z"/><path class="cls-1" d="M34.24,30.93A3.24,3.24,0,1,1,31,27.69a3.24,3.24,0,0,1,3.25,3.24"/><path class="cls-1" d="M29,2.51C28.94,0.89,29.58.6,31,.6s2.06,0.3,2,1.92L31.61,22.29c-0.06.45-.25,1.42-0.64,1.42s-0.59-1-.64-1.42Z"/><path class="cls-1" d="M49.71,9.45c1.08-1.21,1.74-1,2.75,0s1.25,1.67,0,2.74l-14.94,13c-0.35.27-1.18,0.83-1.46,0.55s0.28-1.11.55-1.46Z"/><path class="cls-1" d="M59.42,29c1.62-.09,1.91.54,1.91,2s-0.3,2.06-1.92,2L39.64,31.54c-0.44-.06-1.42-0.25-1.42-0.64s1-.59,1.42-0.64Z"/><path class="cls-1" d="M52.49,49.64c1.21,1.08,1,1.74,0,2.74s-1.67,1.25-2.74,0l-13-14.94c-0.27-.35-0.83-1.18-0.55-1.46s1.11,0.28,1.46.55Z"/><path class="cls-1" d="M33,59.35c0.09,1.62-.54,1.91-2,1.91s-2.06-.3-2-1.92l1.35-19.78c0.05-.44.25-1.42,0.64-1.42s0.59,1,.64,1.42Z"/><path class="cls-1" d="M12.3,52.42c-1.08,1.21-1.74,1-2.74,0s-1.24-1.67,0-2.74l14.94-13c0.35-.27,1.18-0.83,1.46-0.55s-0.28,1.11-.55,1.46Z"/><path class="cls-1" d="M2.58,32.89C1,33,.67,32.35.67,30.93S1,28.87,2.59,29l19.78,1.35c0.44,0.05,1.42.25,1.42,0.64s-1,.59-1.42.64Z"/><path class="cls-1" d="M9.52,12.22c-1.21-1.08-1-1.74,0-2.74s1.67-1.25,2.74,0l13,14.94c0.28,0.35.83,1.18,0.55,1.46s-1.11-.28-1.46-0.55Z"/><path class="cls-1" d="M34.57,21.83c-0.19.61-.25,1.26-0.44,1.87s-0.29.74-.85,0.56c-0.89-.29.12-3.47,0.27-3.93,1.3-4.06,7-8.05,8.19-11.61a3.85,3.85,0,0,0-2.46-4.9c-1.82-.58-2.59.51-3.24,0.3a0.37,0.37,0,0,1-.2-0.48c0.28-.89,2.23-2.17,5.79-1a5.57,5.57,0,0,1,3.65,6.94c-1.57,4.91-8.68,5.88-10.72,12.29"/><path class="cls-1" d="M40,27c-0.57.3-1.07,0.72-1.63,1s-0.73.32-1-.2c-0.43-.83,2.54-2.36,3-2.59,3.79-2,10.68-.71,14-2.42A3.85,3.85,0,0,0,56,17.61c-0.88-1.7-2.19-1.47-2.51-2.08a0.38,0.38,0,0,1,.2-0.49c0.83-.43,3.11,0,4.83,3.37a5.57,5.57,0,0,1-2.33,7.49c-4.58,2.36-10.3-2-16.27,1.11"/><path class="cls-1" d="M40.1,34.5c-0.61-.19-1.26-0.25-1.87-0.44s-0.74-.29-0.56-0.84c0.28-.89,3.46.13,3.93,0.27,4.07,1.3,8.05,7,11.61,8.19a3.85,3.85,0,0,0,4.9-2.46c0.58-1.82-.51-2.59-0.31-3.24a0.38,0.38,0,0,1,.48-0.21c0.89,0.28,2.17,2.23,1,5.8a5.57,5.57,0,0,1-6.94,3.65c-4.91-1.57-5.88-8.68-12.29-10.72"/><path class="cls-1" d="M34.92,39.89c-0.3-.57-0.72-1.07-1-1.63s-0.32-.72.2-1c0.83-.43,2.36,2.54,2.59,3,2,3.79.71,10.68,2.42,14A3.85,3.85,0,0,0,44.32,56c1.7-.87,1.47-2.19,2.07-2.51a0.38,0.38,0,0,1,.49.2c0.43,0.83,0,3.11-3.37,4.83A5.57,5.57,0,0,1,36,56.16c-2.36-4.58,2-10.29-1.11-16.27"/><path class="cls-1" d="M27.44,40c0.19-.61.25-1.27,0.44-1.87s0.29-.74.84-0.56c0.89,0.29-.12,3.47-0.27,3.93-1.3,4.07-7,8.05-8.19,11.61a3.85,3.85,0,0,0,2.46,4.9c1.82,0.58,2.59-.51,3.24-0.31a0.39,0.39,0,0,1,.21.49c-0.28.89-2.24,2.17-5.8,1a5.57,5.57,0,0,1-3.65-6.94c1.57-4.91,8.68-5.88,10.72-12.29"/><path class="cls-1" d="M22,34.85c0.57-.3,1.07-0.72,1.63-1s0.73-.32,1,0.2c0.43,0.83-2.54,2.36-3,2.59-3.8,2-10.68.71-14,2.42A3.85,3.85,0,0,0,6,44.25c0.88,1.7,2.19,1.47,2.51,2.07a0.38,0.38,0,0,1-.2.49c-0.82.43-3.11,0-4.83-3.37A5.57,5.57,0,0,1,5.77,36c4.58-2.36,10.29,2,16.27-1.11"/><path class="cls-1" d="M21.9,27.36c0.61,0.19,1.26.25,1.87,0.44s0.74,0.29.56,0.84c-0.29.89-3.47-.12-3.93-0.27-4.07-1.3-8.05-7.05-11.61-8.19a3.85,3.85,0,0,0-4.9,2.46c-0.58,1.82.51,2.59,0.31,3.24a0.38,0.38,0,0,1-.48.2c-0.89-.28-2.17-2.24-1-5.79a5.57,5.57,0,0,1,6.94-3.65c4.91,1.57,5.88,8.68,12.29,10.72"/><path class="cls-1" d="M27.08,22c0.3,0.57.72,1.07,1,1.63s0.32,0.73-.2,1c-0.83.43-2.36-2.54-2.59-3-2-3.79-.71-10.67-2.42-14a3.85,3.85,0,0,0-5.2-1.73c-1.7.87-1.47,2.19-2.07,2.51a0.38,0.38,0,0,1-.49-0.2c-0.43-.83,0-3.11,3.37-4.83A5.57,5.57,0,0,1,26,5.7C28.34,10.28,24,16,27.08,22"/></svg>