<?xml version="1.0" encoding="UTF-8" standalone="no"?>
<!-- Created with Inkscape (http://www.inkscape.org/) -->

<svg
   xmlns:svg="http://www.w3.org/2000/svg"
   xmlns="http://www.w3.org/2000/svg"
   version="1.1"
   width="450"
   height="105"
   id="svg3902">
  <defs
     id="defs3904" />
  <g
     transform="translate(-259.21875,-371.53629)"
     id="layer1">
    <path
       d="m 487.34375,377.00504 c 0,0 -14.135,34.78375 -15.15625,36.9375 -0.53875,1.0775 -1.0275,1.705 -2.53125,2.78125 l 7.4375,0 c -1.45,-0.68 -1.73375,-1.485 -1.25,-2.84375 0.1075,-0.62375 1.3875,-3.96 3,-7.8125 l 13.1875,0 c 1.505,3.8525 2.9,7.30875 3.0625,7.875 0.375,1.19 0.115,1.9875 -1.28125,2.78125 l 11.5,0 c -1.775,-0.96375 -2.15,-1.59125 -2.6875,-2.78125 -0.9675,-2.15375 -15.28125,-36.9375 -15.28125,-36.9375 z m 142.5625,0 c 0,0 -14.16625,34.78375 -15.1875,36.9375 -0.53875,1.0775 -0.995,1.705 -2.5,2.78125 l 7.40625,0 c -1.4525,-0.68 -1.735,-1.485 -1.25,-2.84375 0.1075,-0.62375 1.41875,-3.96 3.03125,-7.8125 l 13.15625,0 c 1.505,3.8525 2.89875,7.30875 3.0625,7.875 0.37375,1.19 0.115,1.9875 -1.28125,2.78125 l 11.5,0 c -1.775,-0.96375 -2.14875,-1.59125 -2.6875,-2.78125 -0.9675,-2.15375 -15.25,-36.9375 -15.25,-36.9375 z M 349.75,377.56754 c -13.65375,0 -20.625,10.085 -20.625,20 0,12.06875 9.41,19.71875 20,19.71875 4.4075,0 9.1925,-0.9625 13.65625,-3.625 0,0 0.575,-8.38125 0.46875,-8.15625 -3.5475,7.7625 -9.63,8.65625 -12.15625,8.65625 -11.075,0 -14.78125,-9.55 -14.78125,-17.3125 0,-9.12125 5.21375,-16.21875 14.40625,-16.21875 2.58,0 8.87625,0.78125 12.15625,8.65625 0.1075,0.22625 -0.5,-8.78125 -0.5,-8.78125 -4.19375,-2.04 -8.2175,-2.9375 -12.625,-2.9375 z m 101,0 c -13.76,0 -20.8125,10.085 -20.8125,20 0,12.06875 9.45875,19.71875 20.15625,19.71875 4.3,0 11.9525,-1.4625 16.46875,-4.125 -0.26875,-0.17 -0.875,-1.2125 -0.875,-2.34375 l 0,-8.375 c 0,-1.30375 0.6,-2.085 1.40625,-2.59375 l -9.625,0 c 0.86,0.50875 1.40625,1.29 1.40625,2.59375 l 0,9.875 c -2.52625,1.75625 -5.71625,1.84375 -6.84375,1.84375 -11.1275,0 -14.78125,-9.55 -14.78125,-17.3125 0,-9.12125 5.26875,-16.21875 14.40625,-16.21875 2.52625,0 9.3525,1.20125 12.09375,8.90625 l -0.375,-9.03125 c -4.24625,-1.92625 -8.21625,-2.9375 -12.625,-2.9375 z m 122.3125,0 c -4.88875,0 -11.6875,3.07625 -11.6875,10.78125 0,4.30625 2.14875,7.36125 7.09375,10.25 4.89375,2.77625 9.5625,3.4975 9.5625,8.9375 0,2.775 -1.6175,6.8125 -6.9375,6.8125 -5.59125,0 -8.8225,-5.3225 -9.84375,-9.34375 l 0.28125,9.5625 c 1.8825,0.96375 5.4225,2.71875 10.3125,2.71875 6.61625,0 12.53125,-4.825 12.53125,-11.90625 0,-7.87625 -5.22125,-9.72625 -10.21875,-12.21875 -5.055,-2.43625 -7.375,-3.76125 -7.375,-7.21875 0,-2.43625 1.63375,-5.4375 5.71875,-5.4375 5.15875,0 8.22,4.56125 8.96875,7.5625 l -0.28125,-8.40625 c -2.73875,-1.7 -6.2975,-2.09375 -8.125,-2.09375 z m -309.53125,0.625 c 0.86125,0.4525 1.71875,1.4875 1.71875,2.5625 l 0,33.40625 c 0,1.24625 -0.5675,2.0525 -1.375,2.5625 l 5.96875,0 c -0.91375,-0.51 -1.5,-1.31625 -1.5,-2.5625 l 0,-27.59375 0,-1.53125 0.375,1.53125 13,30.9375 12.90625,-31.84375 0.46875,-1.28125 c 0,0 -0.0937,0.60125 -0.0937,1.28125 l 0,28.5 c 0,1.24625 -0.545,2.0525 -1.40625,2.5625 l 9.625,0 c -0.86,-0.51 -1.40625,-1.31625 -1.40625,-2.5625 l 0,-33.40625 c 0,-1.3025 0.54625,-2.11 1.40625,-2.5625 l -9.09375,0 -10.375,26 -10.75,-26 -9.46875,0 z m 48.375,0 c 0.86,0.4525 1.40625,1.26 1.40625,2.5625 l 0,33.40625 c 0,1.24625 -0.54625,2.0525 -1.40625,2.5625 l 9.75,0 c -0.91375,-0.51 -1.40625,-1.31625 -1.40625,-2.5625 l 0,-33.40625 c 0,-1.3025 0.4925,-2.11 1.40625,-2.5625 l -9.75,0 z m 58.8125,0 c 0.86,0.4525 1.40625,1.26 1.40625,2.5625 l 0,33.40625 c 0,1.24625 -0.54625,2.0525 -1.40625,2.5625 l 9.71875,0 c -0.91375,-0.51 -1.375,-1.31625 -1.375,-2.5625 l 0,-17.3125 16.71875,0 0,17.3125 c 0,1.24625 -0.545,2.0525 -1.40625,2.5625 l 9.71875,0 c -0.9125,-0.51 -1.5,-1.31625 -1.5,-2.5625 l 0,-33.40625 c 0,-1.3025 0.5875,-2.11 1.5,-2.5625 l -9.71875,0 c 0.86125,0.4525 1.40625,1.26 1.40625,2.5625 l 0,13.3125 -16.71875,0 0,-13.3125 c 0,-1.3025 0.46125,-2.11 1.375,-2.5625 l -9.71875,0 z m 42.03125,0 c 0.86125,0.4525 1.40625,1.26 1.40625,2.5625 l 0,33.40625 c 0,1.24625 -0.545,2.0525 -1.40625,2.5625 l 9.71875,0 c -0.91375,-0.51 -1.375,-1.31625 -1.375,-2.5625 l 0,-33.40625 c 0,-1.3025 0.46125,-2.11 1.375,-2.5625 l -9.71875,0 z m 93.90625,0 c 1.13,0.68 1.86875,1.47625 2.40625,2.15625 1.0225,1.30375 0.96875,1.3525 0.96875,3.5625 l 0,30.25 c 0,1.24625 -0.59875,2.0525 -1.40625,2.5625 l 5.96875,0 c -0.915,-0.51 -1.5,-1.31625 -1.5,-2.5625 l 0,-28.375 c 0,0.45375 25.8125,32.53125 25.8125,32.53125 l 0,-37.5625 c 0,-1.3025 0.57,-2.11 1.375,-2.5625 l -5.9375,0 c 0.85875,0.4525 1.375,1.26 1.375,2.5625 l 0,22.375 -19.8125,-24.9375 -9.25,0 z m 81.03125,0 0,5.5 c 0.48125,-0.9625 1.3975,-2.28125 2.6875,-2.28125 0,0 4.6475,-0.375 8.625,-0.375 l 0,33.125 c 0,1.24625 -0.5475,2.0525 -1.40625,2.5625 l 9.625,0 c -0.8075,-0.51 -1.40625,-1.31625 -1.40625,-2.5625 l 0,-33.125 c 3.92375,0 8.8125,0.375 8.8125,0.375 1.29,0.1125 2.04625,1.31875 2.53125,2.28125 l 0,-5.5 -29.46875,0 z m 56.0625,0 0,5.5 c 0.48375,-0.9625 1.3975,-2.28125 2.6875,-2.28125 0,0 4.6475,-0.375 8.625,-0.375 l 0,33.125 c 0,1.24625 -0.54625,2.0525 -1.40625,2.5625 l 9.625,0 c -0.80625,-0.51 -1.40625,-1.31625 -1.40625,-2.5625 l 0,-33.125 c 3.9225,0 8.8125,0.375 8.8125,0.375 1.29,0.1125 2.05,1.31875 2.53125,2.28125 l 0,-5.5 -29.46875,0 z m 35.28125,0 c 0.85875,0.4525 1.59375,1.26 1.59375,2.5625 l 0,33.40625 c 0,1.35875 -0.68,1.99625 -1.59375,2.5625 l 23.09375,0 1.125,-6.53125 c -1.98875,3.56875 -4.135,3.48 -8.8125,3.59375 -2.63375,0.11375 -5.89375,-0.11125 -6.96875,-0.28125 l 0,-16.65625 8.125,0 c 0.75125,0 1.63625,0.83125 1.90625,1.625 l 0,-6 c -0.27,0.67875 -1.155,1.59375 -1.90625,1.59375 l -8.125,0 0,-13.03125 c 0,0 7.5125,-0.0175 9.125,0.0937 2.04625,0.115 3.1675,0.58875 4.1875,2.0625 l -0.15625,-5 -21.59375,0 z m -193.71875,11.0625 c 0,0 2.94125,7.58625 5.46875,13.875 l -10.84375,0 c 1.72,-4.25 5.375,-13.875 5.375,-13.875 z m 142.53125,0 c 0,0 2.975,7.58625 5.5,13.875 l -10.875,0 c 1.72125,-4.25 5.375,-13.875 5.375,-13.875 z m -364.40625,37.46875 0,2.96875 440.75,0 0,-2.96875 -440.75,0 z m 297.09375,15 c -3.52125,0 -8.4375,2.2025 -8.4375,7.75 0,3.10375 1.565,5.29625 5.125,7.375 3.525,2 6.875,2.55125 6.875,6.46875 0,1.99875 -1.1675,4.875 -5,4.875 -4.02375,0 -6.33,-3.82 -7.0625,-6.71875 l 0.1875,6.875 c 1.355,0.69375 3.9125,1.96875 7.4375,1.96875 4.75875,0 9,-3.4625 9,-8.5625 0,-5.6675 -3.74625,-7.0175 -7.34375,-8.8125 -3.64125,-1.75625 -5.3125,-2.70125 -5.3125,-5.1875 0,-1.755 1.185,-3.90625 4.125,-3.90625 3.71625,0 5.8975,3.27375 6.4375,5.4375 l -0.1875,-6.0625 c -1.9725,-1.22375 -4.5275,-1.5 -5.84375,-1.5 z m -296.46875,0.4375 c 0.62,0.32875 1.25,0.905 1.25,1.84375 l 0,16.96875 c 0,7.22125 5.75375,9.34375 10.28125,9.34375 5.2625,0 9.1875,-2.69125 9.1875,-9.625 l 0.0937,-16.6875 c 0,-0.93875 0.45125,-1.515 1.03125,-1.84375 l -4.5,0 c 0.58125,0.32875 1.03125,0.905 1.03125,1.84375 l 0.0937,16.78125 c 0,4.03625 -1.6775,7.21875 -6.28125,7.21875 -5.03125,0 -5.9375,-4.0525 -5.9375,-6.90625 l 0,-17.09375 c 0,-0.93875 0.5675,-1.515 1.1875,-1.84375 l -7.4375,0 z m 50.6875,0 c 0.8125,0.49125 1.3625,1.07375 1.75,1.5625 0.73375,0.93875 0.6875,0.97 0.6875,2.5625 l 0,21.78125 c 0,0.8975 -0.42,1.4775 -1,1.84375 l 4.3125,0 c -0.6575,-0.36625 -1.09375,-0.94625 -1.09375,-1.84375 l 0,-20.4375 c 0,0.32875 18.5625,23.4375 18.5625,23.4375 l 0,-27.0625 c 0,-0.93875 0.45,-1.515 1.03125,-1.84375 l -4.3125,0 c 0.62,0.32875 1,0.905 1,1.84375 l 0,16.125 -14.28125,-17.96875 -6.65625,0 z m 55.03125,0 c 0.61875,0.32875 1,0.90625 1,1.84375 l 0,24.0625 c 0,0.8975 -0.38125,1.4775 -1,1.84375 l 7,0 c -0.65875,-0.36625 -1,-0.94625 -1,-1.84375 l 0,-24.0625 c 0,-0.9375 0.34125,-1.515 1,-1.84375 l -7,0 z m 33.71875,0 c 1.1625,0.49125 1.63125,1.15125 2.09375,1.96875 0.73625,1.5075 10.84375,26.65625 10.84375,26.65625 0,0 9.31,-25.06625 9.96875,-26.65625 0.3875,-0.97875 0.4625,-1.27125 1.46875,-1.96875 l -4.71875,0 c 1.00625,0.41 1.16125,1.0025 0.8125,2.0625 -0.0387,0.28625 -6.1875,17.34375 -6.1875,17.34375 0,0 -6.4525,-16.79125 -6.53125,-17.15625 -0.27125,-0.98 -0.195,-1.84 0.8125,-2.25 l -8.5625,0 z m 51.78125,0 c 0.61875,0.32875 1.15625,0.905 1.15625,1.84375 l 0,24.0625 c 0,0.98125 -0.49875,1.435 -1.15625,1.84375 l 16.625,0 0.8125,-4.6875 c -1.4325,2.57 -2.9775,2.48 -6.34375,2.5625 -1.89625,0.0838 -4.2575,-0.0663 -5.03125,-0.1875 l 0,-12 5.84375,0 c 0.5425,0 1.2125,0.6175 1.40625,1.1875 l 0,-4.34375 c -0.19375,0.48875 -0.86375,1.15625 -1.40625,1.15625 l -5.84375,0 0,-9.375 c 0,0 5.4325,-0.0188 6.59375,0.0625 1.47,0.0813 2.265,0.40625 3,1.46875 l -0.0937,-3.59375 -15.5625,0 z m 46.4375,0 c 0.61875,0.32875 1,0.905 1,1.84375 l 0,24.0625 c 0,0.8975 -0.38125,1.4775 -1,1.84375 l 7,0 C 508.06,469.54504 507.625,468.96504 507.625,468.06754 l 0,-11.125 c 0,0 1.255,-0.0937 1.71875,-0.0937 1.665,0 2.55625,1.7725 3.5625,3.40625 1.395,2.28375 3.105,5.2425 4.84375,7.8125 0.6975,0.98 1.96875,1.9375 3.4375,1.9375 l 5.03125,-0.0937 c 0,0 -1.73625,-0.6475 -2.46875,-1.625 -1.35625,-1.6325 -6,-9.375 -6,-9.375 -0.58,-0.90125 -1.7425,-2.7775 -4.375,-3.0625 2.74625,-0.205 6.53125,-2.40875 6.53125,-6.8125 0,-2.73375 -1.83375,-6.875 -9.84375,-6.875 l -8.34375,0 z m 97.15625,0 c 0.6175,0.32875 1.03125,0.90625 1.03125,1.84375 l 0,24.0625 c 0,0.8975 -0.41375,1.4775 -1.03125,1.84375 l 7.03125,0 c -0.6575,-0.36625 -1.03125,-0.94625 -1.03125,-1.84375 l 0,-24.0625 c 0,-0.9375 0.37375,-1.515 1.03125,-1.84375 l -7.03125,0 z m 36,0 0,3.96875 c 0.3475,-0.69 1.00875,-1.625 1.9375,-1.625 0,0 3.32375,-0.28125 6.1875,-0.28125 l 0,23.84375 c 0,0.8975 -0.38,1.4775 -1,1.84375 l 6.9375,0 c -0.58,-0.36625 -1.03125,-0.94625 -1.03125,-1.84375 l 0,-23.84375 c 2.82375,0 6.375,0.28125 6.375,0.28125 0.9275,0.0813 1.4625,0.935 1.8125,1.625 l 0,-3.96875 -21.21875,0 z m 46.71875,0 c 1.045,0.57375 1.455,0.99 2,1.96875 l 7.59375,13.09375 0,10.84375 c 0,0.98 -0.73125,1.4775 -1.3125,1.84375 l 7.71875,0 C 696.9725,469.54504 696.25,468.96504 696.25,468.06754 l 0,-11 6.1875,-12.40625 c 0.46375,-0.9375 1.36,-2.09 2.5625,-2.5 l -5.53125,0 c 1.0825,0.28875 1.35375,1.16375 0.8125,2.0625 l -5.125,10.5 -5.4375,-10.03125 c -1.00625,-1.9175 -0.3425,-2.12125 0.625,-2.53125 l -8.75,0 z M 509.875,444.13004 c 3.83,0 4.90625,3.28 4.90625,5.15625 0,4.12125 -2.77375,5.65625 -5.40625,5.65625 -0.6575,0 -1.75,-0.0937 -1.75,-0.0937 l 0,-10.625 c 0,0 1.0875,-0.0937 2.25,-0.0937 z"
       id="path850"
       style="fill:#FFFFFF;fill-opacity:1;fill-rule:nonzero;stroke:none" />
  </g>
</svg>
