<?xml version="1.0" encoding="UTF-8"?>
<svg width="211px" height="39px" viewBox="0 0 211 39" version="1.1" xmlns="http://www.w3.org/2000/svg" xmlns:xlink="http://www.w3.org/1999/xlink">
    <!-- Generator: Sketch 64 (93537) - https://sketch.com -->
    <title>ProudlyPoweredByArcs-Logo</title>
    <desc>Created with Sketch.</desc>
    <g id="Page-1" stroke="none" stroke-width="1" fill="none" fill-rule="evenodd">
        <g id="ProudlyPoweredByArcs-Logo" fill="#FFFFFF">
            <g id="Logo---White" transform="translate(81.000000, 0.000000)">
                <path d="M73.2295351,18.8866207 C73.2295351,18.8866207 73.2295351,18.8866207 73.2295351,18.8866207 L73.2295351,18.8866207 Z M73.2295351,18.8866219 L72.0545098,16.8077311 C72.0545098,16.8077311 74.2840449,15 77.8392494,15 C81.7258714,15 83.7746333,17.0186331 83.7746333,20.8751262 L83.7746333,27.6842467 C83.7746333,28.1361795 84.0156641,28.3470815 84.437468,28.3470815 L85.9740395,28.3470815 L85.9740395,30.6067454 L82.9310254,30.6067454 C81.5752271,30.6067454 81.0329078,29.9439107 81.0329078,28.9496585 L81.0329078,28.7387566 C81.0329078,28.1361795 81.1534232,27.7445044 81.1534232,27.7445044 L81.0931655,27.7445044 C81.0931655,27.7445044 79.767496,30.9682916 76.0616472,30.9682916 C73.5308236,30.9682916 71,29.4919779 71,26.3585772 C71,21.5680898 77.3571878,21.2366724 79.8880114,21.2366724 L80.8521346,21.2366724 L80.8521346,20.6642242 C80.8521346,18.253916 79.4662074,17.4103082 77.5982186,17.4103082 C75.189173,17.4103082 73.2315869,18.8850756 73.2295367,18.8866207 L73.2295351,18.8866219 Z M73.9526275,26.1175464 C73.9526275,27.4733448 74.9468796,28.7086277 76.6943531,28.7086277 C79.2854343,28.7086277 80.8822635,26.0572887 80.8822635,23.767496 L80.8822635,23.1347901 L80.1290422,23.1347901 C78.743115,23.1347901 73.9526275,23.1950478 73.9526275,26.1175464 Z M88.2337034,30.6067454 L88.2337034,28.3470815 L90.5234962,28.3470815 L90.5234962,18.2840449 C90.5234962,17.8321121 90.2824654,17.6212101 89.8606614,17.6212101 L87.9625437,17.6212101 L87.9625437,15.3615462 L91.3972329,15.3615462 C92.7229024,15.3615462 93.3556083,15.9038656 93.3556083,17.1391485 L93.3556083,18.1032718 C93.3556083,18.7058488 93.2953506,19.1577816 93.2953506,19.1577816 L93.3556083,19.1577816 C94.0485719,16.9282465 95.8261741,15.1807731 98.1762246,15.1807731 C98.5678997,15.1807731 98.9294459,15.2410308 98.9294459,15.2410308 L98.9294459,18.1334006 C98.9294459,18.1334006 98.5678997,18.0430141 98.0858381,18.0430141 C94.831922,18.0430141 93.4459948,21.3270589 93.4459948,24.3098153 L93.4459948,28.3470815 L95.7056587,28.3470815 L95.7056587,30.6067454 L88.2337034,30.6067454 Z M100.526275,23.0142747 C100.526275,18.3443026 104.051351,15 108.600807,15 C110.860471,15 114.56632,15.8436079 114.56632,18.464818 L114.56632,20.3328068 L111.975239,20.3328068 L111.975239,19.278297 C111.975239,18.1032718 110.046992,17.5308236 108.691194,17.5308236 C105.618051,17.5308236 103.509031,19.7001009 103.509031,22.954017 C103.509031,26.418835 105.949468,28.437468 108.871967,28.437468 C111.463048,28.437468 113.210522,26.9008966 113.752841,26.4790927 L114.867609,28.6182412 C114.174645,29.2509471 111.975239,30.9682916 108.751452,30.9682916 C104.352639,30.9682916 100.526275,27.9252776 100.526275,23.0142747 Z M2.90956522,3.636 L2.90956522,33.732 C2.90195652,34.3947 3.44080435,34.938 4.1131087,34.9455 C4.17884783,34.94625 4.24458696,34.94175 4.30956522,34.932 C6.82804348,34.55295 9.37071739,34.3524 11.9182609,34.332 C15.4471739,34.2717 18.9613261,34.7949 22.3147826,35.88 C14.7418478,34.9773 7.06041304,35.9976 0,38.844 L0,3.636 L2.90956522,3.636 Z M12.5147826,9.09494702e-13 C17.0678261,9.09494702e-13 23.3495652,1.032 27.7078261,5.88 L27.7443478,35.772 C25.2121739,34.14 20.2695652,31.944 11.9182609,31.944 C9.70397826,31.94895 7.49228261,32.0892 5.29565217,32.364 L5.29565217,0.792 C7.66591304,0.2715 10.0863913,0.00585 12.5147826,9.09494702e-13 Z M35.0078482,32.1773544 C35.560133,32.1773544 36.0078482,32.6250697 36.0078482,33.1773544 C36.0078482,33.7296392 35.560133,34.1773544 35.0078482,34.1773544 L33,34.1773544 C32.4477153,34.1773544 32,33.7296392 32,33.1773544 C32,32.6250697 32.4477153,32.1773544 33,32.1773544 L35.0078482,32.1773544 Z M41.0078482,32.1773544 C41.560133,32.1773544 42.0078482,32.6250697 42.0078482,33.1773544 C42.0078482,33.7296392 41.560133,34.1773544 41.0078482,34.1773544 L39,34.1773544 C38.4477153,34.1773544 38,33.7296392 38,33.1773544 C38,32.6250697 38.4477153,32.1773544 39,32.1773544 L41.0078482,32.1773544 Z M57.0281647,32.1773544 C57.5804494,32.1773544 58.0281647,32.6250697 58.0281647,33.1773544 C58.0281647,33.7296392 57.5804494,34.1773544 57.0281647,34.1773544 L45,34.1773544 C44.4477153,34.1773544 44,33.7296392 44,33.1773544 C44,32.6250697 44.4477153,32.1773544 45,32.1773544 L57.0281647,32.1773544 Z M123.394074,15 C125.533222,15 128.666623,15.8436079 128.666623,18.0731429 L128.666623,19.9110029 L126.105671,19.9110029 L126.105671,18.9167508 C126.105671,17.9827564 124.900516,17.3500505 123.424203,17.3500505 C121.978018,17.3500505 120.712606,17.9526275 120.712606,19.1879104 C120.712606,20.6340953 122.399822,21.2366724 124.237682,21.8693783 C126.587732,22.6527284 129.2692,23.6469806 129.2692,26.4790927 C129.2692,29.3714625 126.617861,30.9682916 123.153043,30.9682916 C120.381189,30.9682916 117.18753,29.7330087 117.18753,27.3227005 L117.18753,25.6957425 L119.748483,25.6957425 L119.748483,26.6899946 C119.748483,27.9855353 121.556214,28.5881123 123.24343,28.5881123 C124.960774,28.5881123 126.316572,27.8951487 126.316572,26.6297369 C126.316572,25.0931655 124.629357,24.6111038 122.520337,23.8578825 C120.260673,23.0142747 117.759978,21.9898937 117.759978,19.2180393 C117.759978,16.2051541 120.742735,15 123.394074,15 Z M41.0421854,27.1773544 C41.5944701,27.1773544 42.0421854,27.6250697 42.0421854,28.1773544 C42.0421854,28.7296392 41.5944701,29.1773544 41.0421854,29.1773544 L33,29.1773544 C32.4477153,29.1773544 32,28.7296392 32,28.1773544 C32,27.6250697 32.4477153,27.1773544 33,27.1773544 L41.0421854,27.1773544 Z M47.0421854,27.1773544 C47.5944701,27.1773544 48.0421854,27.6250697 48.0421854,28.1773544 C48.0421854,28.7296392 47.5944701,29.1773544 47.0421854,29.1773544 L44.9923133,29.1773544 C44.4400285,29.1773544 43.9923133,28.7296392 43.9923133,28.1773544 C43.9923133,27.6250697 44.4400285,27.1773544 44.9923133,27.1773544 L47.0421854,27.1773544 Z M57.0026173,27.1773544 C57.554902,27.1773544 58.0026173,27.6250697 58.0026173,28.1773544 C58.0026173,28.7296392 57.554902,29.1773544 57.0026173,29.1773544 L50.9923133,29.1773544 C50.4400285,29.1773544 49.9923133,28.7296392 49.9923133,28.1773544 C49.9923133,27.6250697 50.4400285,27.1773544 50.9923133,27.1773544 L57.0026173,27.1773544 Z M35,22.1773544 C35.5522847,22.1773544 36,22.6250697 36,23.1773544 C36,23.7296392 35.5522847,24.1773544 35,24.1773544 L33,24.1773544 C32.4477153,24.1773544 32,23.7296392 32,23.1773544 C32,22.6250697 32.4477153,22.1773544 33,22.1773544 L35,22.1773544 Z M57.0008737,22.1773544 C57.5531585,22.1773544 58.0008737,22.6250697 58.0008737,23.1773544 C58.0008737,23.7296392 57.5531585,24.1773544 57.0008737,24.1773544 L39,24.1773544 C38.4477153,24.1773544 38,23.7296392 38,23.1773544 C38,22.6250697 38.4477153,22.1773544 39,22.1773544 L57.0008737,22.1773544 Z M45.0013105,17.1773544 C45.5535953,17.1773544 46.0013105,17.6250697 46.0013105,18.1773544 C46.0013105,18.7296392 45.5535953,19.1773544 45.0013105,19.1773544 L33,19.1773544 C32.4477153,19.1773544 32,18.7296392 32,18.1773544 C32,17.6250697 32.4477153,17.1773544 33,17.1773544 L45.0013105,17.1773544 Z M51.0013105,17.1773544 C51.5535953,17.1773544 52.0013105,17.6250697 52.0013105,18.1773544 C52.0013105,18.7296392 51.5535953,19.1773544 51.0013105,19.1773544 L48.9921569,19.1773544 C48.4398721,19.1773544 47.9921569,18.7296392 47.9921569,18.1773544 C47.9921569,17.6250697 48.4398721,17.1773544 48.9921569,17.1773544 L51.0013105,17.1773544 Z M57.0013105,17.1773544 C57.5535953,17.1773544 58.0013105,17.6250697 58.0013105,18.1773544 C58.0013105,18.7296392 57.5535953,19.1773544 57.0013105,19.1773544 L54.9921569,19.1773544 C54.4398721,19.1773544 53.9921569,18.7296392 53.9921569,18.1773544 C53.9921569,17.6250697 54.4398721,17.1773544 54.9921569,17.1773544 L57.0013105,17.1773544 Z M41,12.1773544 C41.5522847,12.1773544 42,12.6250697 42,13.1773544 C42,13.7296392 41.5522847,14.1773544 41,14.1773544 L33,14.1773544 C32.4477153,14.1773544 32,13.7296392 32,13.1773544 C32,12.6250697 32.4477153,12.1773544 33,12.1773544 L41,12.1773544 Z M57.0014297,12.1773544 C57.5537144,12.1773544 58.0014297,12.6250697 58.0014297,13.1773544 C58.0014297,13.7296392 57.5537144,14.1773544 57.0014297,14.1773544 L45,14.1773544 C44.4477153,14.1773544 44,13.7296392 44,13.1773544 C44,12.6250697 44.4477153,12.1773544 45,12.1773544 L57.0014297,12.1773544 Z M49,7.17735443 C49.5522847,7.17735443 50,7.62506968 50,8.17735443 C50,8.72963918 49.5522847,9.17735443 49,9.17735443 L33,9.17735443 C32.4477153,9.17735443 32,8.72963918 32,8.17735443 C32,7.62506968 32.4477153,7.17735443 33,7.17735443 L49,7.17735443 Z M57,7.17735443 C57.5522847,7.17735443 58,7.62506968 58,8.17735443 C58,8.72963918 57.5522847,9.17735443 57,9.17735443 L53,9.17735443 C52.4477153,9.17735443 52,8.72963918 52,8.17735443 C52,7.62506968 52.4477153,7.17735443 53,7.17735443 L57,7.17735443 Z" id="Logo"></path>
            </g>
            <path d="M25.804,18 L25.804,14.868 L27.556,14.868 C29.104,14.868 30.208,13.788 30.208,12.18 C30.208,10.572 29.104,9.528 27.556,9.528 L23.824,9.528 L23.824,10.56 L24.604,10.56 L24.604,18 L25.804,18 Z M27.364,13.836 L25.804,13.836 L25.804,10.56 L27.376,10.56 C28.36,10.56 28.972,11.16 28.972,12.18 C28.972,13.2 28.36,13.836 27.364,13.836 Z M32.656,18 L32.656,15.516 C32.656,15.144 32.692,14.772 32.8,14.424 C33.076,13.524 33.76,12.996 34.504,12.996 C34.696,12.996 34.852,13.032 34.852,13.032 L34.852,11.88 C34.852,11.88 34.696,11.856 34.54,11.856 C33.604,11.856 32.908,12.552 32.62,13.44 L32.596,13.44 C32.596,13.44 32.62,13.26 32.62,13.02 L32.62,12.636 C32.62,12.144 32.368,11.928 31.84,11.928 L30.736,11.928 L30.736,12.924 L31.228,12.924 C31.396,12.924 31.492,13.008 31.492,13.188 L31.492,18 L32.656,18 Z M38.812,18.144 C40.624,18.144 42.088,16.8 42.088,14.952 C42.088,13.116 40.624,11.784 38.812,11.784 C37,11.784 35.548,13.116 35.548,14.952 C35.548,16.8 37,18.144 38.812,18.144 Z M38.812,17.136 C37.672,17.136 36.736,16.224 36.736,14.952 C36.736,13.692 37.672,12.792 38.812,12.792 C39.964,12.792 40.9,13.692 40.9,14.952 C40.9,16.224 39.964,17.136 38.812,17.136 Z M45.58,18.144 C46.78,18.144 47.56,17.352 47.812,16.752 L47.836,16.752 C47.836,16.752 47.8271837,16.8666122 47.8246647,17.0202682 L47.824,17.328 C47.824,17.76 48.076,18 48.592,18 L49.708,18 L49.708,17.004 L49.216,17.004 C49.048,17.004 48.952,16.92 48.952,16.74 L48.952,11.928 L47.788,11.928 L47.788,14.772 C47.788,15.972 47.056,17.064 45.808,17.064 C44.848,17.064 44.68,16.392 44.68,15.552 L44.68,12.672 C44.68,12.156 44.452,11.928 43.9,11.928 L42.76,11.928 L42.76,12.924 L43.252,12.924 C43.42,12.924 43.516,13.008 43.516,13.188 L43.516,15.816 C43.516,17.424 44.212,18.144 45.58,18.144 Z M53.092,18.144 C54.58,18.144 55.084,17.04 55.084,17.04 L55.108,17.04 C55.108,17.04 55.096,17.172 55.096,17.352 C55.096,17.76 55.312,18 55.84,18 L56.956,18 L56.956,17.004 L56.464,17.004 C56.296,17.004 56.2,16.92 56.2,16.74 L56.2,10.296 C56.2,9.756 55.972,9.528 55.432,9.528 L54.28,9.528 L54.28,10.524 L54.772,10.524 C54.94,10.524 55.036,10.608 55.036,10.788 L55.036,12.312 C55.036,12.54 55.06,12.72 55.06,12.72 L55.036,12.72 C55.036,12.72 54.568,11.784 53.164,11.784 C51.556,11.784 50.416,13.032 50.416,14.964 C50.416,16.848 51.448,18.144 53.092,18.144 Z M53.32,17.136 C52.312,17.136 51.604,16.284 51.604,14.964 C51.604,13.584 52.396,12.792 53.344,12.792 C54.508,12.792 55.072,13.872 55.072,14.952 C55.072,16.5 54.22,17.136 53.32,17.136 Z M60.148,18 L60.148,17.004 L59.656,17.004 C59.488,17.004 59.392,16.92 59.392,16.74 L59.392,10.296 C59.392,9.756 59.164,9.528 58.624,9.528 L57.472,9.528 L57.472,10.524 L57.964,10.524 C58.132,10.524 58.228,10.608 58.228,10.788 L58.228,17.232 C58.228,17.772 58.456,18 58.996,18 L60.148,18 Z M61.936,20.52 C62.788,20.52 63.52,20.028 63.892,19.092 L66.292,13.164 C66.376,12.972 66.484,12.924 66.676,12.924 L66.832,12.924 L66.832,11.928 L66.136,11.928 C65.644,11.928 65.428,12.06 65.248,12.54 L63.988,15.96 C63.868,16.272 63.784,16.692 63.784,16.692 L63.76,16.692 C63.76,16.692 63.664,16.272 63.544,15.96 L62.164,12.54 C61.972,12.06 61.792,11.928 61.3,11.928 L60.616,11.928 L60.616,12.924 L60.76,12.924 C60.952,12.924 61.06,12.972 61.144,13.164 L63.22,17.976 L62.944,18.636 C62.716,19.176 62.344,19.512 61.876,19.512 C61.36,19.512 60.988,19.092 60.988,19.08 L60.508,19.92 C60.508,19.92 61.036,20.52 61.936,20.52 Z M2.584,32 L2.584,28.868 L4.336,28.868 C5.884,28.868 6.988,27.788 6.988,26.18 C6.988,24.572 5.884,23.528 4.336,23.528 L0.604,23.528 L0.604,24.56 L1.384,24.56 L1.384,32 L2.584,32 Z M4.144,27.836 L2.584,27.836 L2.584,24.56 L4.156,24.56 C5.14,24.56 5.752,25.16 5.752,26.18 C5.752,27.2 5.14,27.836 4.144,27.836 Z M10.948,32.144 C12.76,32.144 14.224,30.8 14.224,28.952 C14.224,27.116 12.76,25.784 10.948,25.784 C9.136,25.784 7.684,27.116 7.684,28.952 C7.684,30.8 9.136,32.144 10.948,32.144 Z M10.948,31.136 C9.808,31.136 8.872,30.224 8.872,28.952 C8.872,27.692 9.808,26.792 10.948,26.792 C12.1,26.792 13.036,27.692 13.036,28.952 C13.036,30.224 12.1,31.136 10.948,31.136 Z M18.232,32 L19.48,28.1 C19.576,27.788 19.648,27.44 19.648,27.44 L19.672,27.44 C19.672,27.44 19.744,27.788 19.84,28.1 L21.1,32 L22.408,32 L24.004,27.164 C24.064,26.972 24.184,26.924 24.376,26.924 L24.544,26.924 L24.544,25.928 L23.824,25.928 C23.284,25.928 23.068,26.06 22.912,26.576 L21.844,30.188 C21.748,30.5 21.7,30.836 21.7,30.836 L21.676,30.836 C21.676,30.836 21.616,30.5 21.52,30.188 L20.2,25.952 L19.132,25.952 L17.824,30.188 C17.728,30.5 17.656,30.836 17.656,30.836 L17.632,30.836 C17.632,30.836 17.584,30.5 17.488,30.188 L16.408,26.576 C16.252,26.06 16.048,25.928 15.508,25.928 L14.776,25.928 L14.776,26.924 L14.944,26.924 C15.136,26.924 15.256,26.972 15.316,27.164 L16.912,32 L18.232,32 Z M28.324,32.144 C29.764,32.144 30.664,31.256 30.664,31.256 L30.16,30.428 C30.16,30.428 29.428,31.136 28.384,31.136 C27.304,31.136 26.368,30.404 26.296,29.108 L30.724,29.108 C30.724,29.108 30.76,28.784 30.76,28.628 C30.76,27.056 29.848,25.784 28.144,25.784 C26.416,25.784 25.096,27.032 25.096,28.964 C25.096,30.764 26.404,32.144 28.324,32.144 Z M29.56,28.256 L26.344,28.256 C26.524,27.248 27.244,26.708 28.132,26.708 C28.888,26.708 29.524,27.248 29.56,28.256 Z M33.472,32 L33.472,29.516 C33.472,29.144 33.508,28.772 33.616,28.424 C33.892,27.524 34.576,26.996 35.32,26.996 C35.512,26.996 35.668,27.032 35.668,27.032 L35.668,25.88 C35.668,25.88 35.512,25.856 35.356,25.856 C34.42,25.856 33.724,26.552 33.436,27.44 L33.412,27.44 C33.412,27.44 33.436,27.26 33.436,27.02 L33.436,26.636 C33.436,26.144 33.184,25.928 32.656,25.928 L31.552,25.928 L31.552,26.924 L32.044,26.924 C32.212,26.924 32.308,27.008 32.308,27.188 L32.308,32 L33.472,32 Z M39.592,32.144 C41.032,32.144 41.932,31.256 41.932,31.256 L41.428,30.428 C41.428,30.428 40.696,31.136 39.652,31.136 C38.572,31.136 37.636,30.404 37.564,29.108 L41.992,29.108 C41.992,29.108 42.028,28.784 42.028,28.628 C42.028,27.056 41.116,25.784 39.412,25.784 C37.684,25.784 36.364,27.032 36.364,28.964 C36.364,30.764 37.672,32.144 39.592,32.144 Z M40.828,28.256 L37.612,28.256 C37.792,27.248 38.512,26.708 39.4,26.708 C40.156,26.708 40.792,27.248 40.828,28.256 Z M45.676,32.144 C47.164,32.144 47.668,31.04 47.668,31.04 L47.692,31.04 C47.692,31.04 47.68,31.172 47.68,31.352 C47.68,31.76 47.896,32 48.424,32 L49.54,32 L49.54,31.004 L49.048,31.004 C48.88,31.004 48.784,30.92 48.784,30.74 L48.784,24.296 C48.784,23.756 48.556,23.528 48.016,23.528 L46.864,23.528 L46.864,24.524 L47.356,24.524 C47.524,24.524 47.62,24.608 47.62,24.788 L47.62,26.312 C47.62,26.54 47.644,26.72 47.644,26.72 L47.62,26.72 C47.62,26.72 47.152,25.784 45.748,25.784 C44.14,25.784 43,27.032 43,28.964 C43,30.848 44.032,32.144 45.676,32.144 Z M45.904,31.136 C44.896,31.136 44.188,30.284 44.188,28.964 C44.188,27.584 44.98,26.792 45.928,26.792 C47.092,26.792 47.656,27.872 47.656,28.952 C47.656,30.5 46.804,31.136 45.904,31.136 Z M57.184,32 C58.684,32 59.908,31.184 59.908,29.588 C59.908,28.64 59.416,27.8 58.516,27.536 L58.516,27.512 C59.08,27.236 59.572,26.612 59.572,25.688 C59.572,24.32 58.54,23.528 57.112,23.528 L53.488,23.528 L53.488,24.56 L54.268,24.56 L54.268,31.232 C54.268,31.772 54.496,32 55.036,32 L57.184,32 Z M57.124,27.092 L55.468,27.092 L55.468,24.56 L57.1,24.56 C57.892,24.56 58.348,25.064 58.348,25.808 C58.348,26.552 57.868,27.092 57.124,27.092 Z M57.244,30.968 L55.732,30.968 C55.564,30.968 55.468,30.872 55.468,30.704 L55.468,28.076 L57.244,28.076 C58.108,28.076 58.672,28.664 58.672,29.528 C58.672,30.392 58.144,30.968 57.244,30.968 Z M61.936,34.52 C62.788,34.52 63.52,34.028 63.892,33.092 L66.292,27.164 C66.376,26.972 66.484,26.924 66.676,26.924 L66.832,26.924 L66.832,25.928 L66.136,25.928 C65.644,25.928 65.428,26.06 65.248,26.54 L63.988,29.96 C63.868,30.272 63.784,30.692 63.784,30.692 L63.76,30.692 C63.76,30.692 63.664,30.272 63.544,29.96 L62.164,26.54 C61.972,26.06 61.792,25.928 61.3,25.928 L60.616,25.928 L60.616,26.924 L60.76,26.924 C60.952,26.924 61.06,26.972 61.144,27.164 L63.22,31.976 L62.944,32.636 C62.716,33.176 62.344,33.512 61.876,33.512 C61.36,33.512 60.988,33.092 60.988,33.08 L60.508,33.92 C60.508,33.92 61.036,34.52 61.936,34.52 Z" id="ProudlyPoweredBy" fill-rule="nonzero"></path>
        </g>
    </g>
</svg>