<?xml version="1.0" encoding="UTF-8"?>
<svg width="211px" height="39px" viewBox="0 0 211 39" version="1.1" xmlns="http://www.w3.org/2000/svg" xmlns:xlink="http://www.w3.org/1999/xlink">
    <!-- Generator: Sketch 64 (93537) - https://sketch.com -->
    <title>ProudlyPoweredByArcs-Logo</title>
    <desc>Created with Sketch.</desc>
    <g id="Page-1" stroke="none" stroke-width="1" fill="none" fill-rule="evenodd">
        <g id="ProudlyPoweredByArcs-Logo" fill="#FFFFFF">
            <g id="Logo---White" transform="translate(81.000000, 0.000000)">
                <path d="M73.2295351,18.8866207 C73.2295351,18.8866207 73.2295351,18.8866207 73.2295351,18.8866207 L73.2295351,18.8866207 Z M73.2295351,18.8866219 L72.0545098,16.8077311 C72.0545098,16.8077311 74.2840449,15 77.8392494,15 C81.7258714,15 83.7746333,17.0186331 83.7746333,20.8751262 L83.7746333,27.6842467 C83.7746333,28.1361795 84.0156641,28.3470815 84.437468,28.3470815 L85.9740395,28.3470815 L85.9740395,30.6067454 L82.9310254,30.6067454 C81.5752271,30.6067454 81.0329078,29.9439107 81.0329078,28.9496585 L81.0329078,28.7387566 C81.0329078,28.1361795 81.1534232,27.7445044 81.1534232,27.7445044 L81.0931655,27.7445044 C81.0931655,27.7445044 79.767496,30.9682916 76.0616472,30.9682916 C73.5308236,30.9682916 71,29.4919779 71,26.3585772 C71,21.5680898 77.3571878,21.2366724 79.8880114,21.2366724 L80.8521346,21.2366724 L80.8521346,20.6642242 C80.8521346,18.253916 79.4662074,17.4103082 77.5982186,17.4103082 C75.189173,17.4103082 73.2315869,18.8850756 73.2295367,18.8866207 L73.2295351,18.8866219 Z M73.9526275,26.1175464 C73.9526275,27.4733448 74.9468796,28.7086277 76.6943531,28.7086277 C79.2854343,28.7086277 80.8822635,26.0572887 80.8822635,23.767496 L80.8822635,23.1347901 L80.1290422,23.1347901 C78.743115,23.1347901 73.9526275,23.1950478 73.9526275,26.1175464 Z M88.2337034,30.6067454 L88.2337034,28.3470815 L90.5234962,28.3470815 L90.5234962,18.2840449 C90.5234962,17.8321121 90.2824654,17.6212101 89.8606614,17.6212101 L87.9625437,17.6212101 L87.9625437,15.3615462 L91.3972329,15.3615462 C92.7229024,15.3615462 93.3556083,15.9038656 93.3556083,17.1391485 L93.3556083,18.1032718 C93.3556083,18.7058488 93.2953506,19.1577816 93.2953506,19.1577816 L93.3556083,19.1577816 C94.0485719,16.9282465 95.8261741,15.1807731 98.1762246,15.1807731 C98.5678997,15.1807731 98.9294459,15.2410308 98.9294459,15.2410308 L98.9294459,18.1334006 C98.9294459,18.1334006 98.5678997,18.0430141 98.0858381,18.0430141 C94.831922,18.0430141 93.4459948,21.3270589 93.4459948,24.3098153 L93.4459948,28.3470815 L95.7056587,28.3470815 L95.7056587,30.6067454 L88.2337034,30.6067454 Z M100.526275,23.0142747 C100.526275,18.3443026 104.051351,15 108.600807,15 C110.860471,15 114.56632,15.8436079 114.56632,18.464818 L114.56632,20.3328068 L111.975239,20.3328068 L111.975239,19.278297 C111.975239,18.1032718 110.046992,17.5308236 108.691194,17.5308236 C105.618051,17.5308236 103.509031,19.7001009 103.509031,22.954017 C103.509031,26.418835 105.949468,28.437468 108.871967,28.437468 C111.463048,28.437468 113.210522,26.9008966 113.752841,26.4790927 L114.867609,28.6182412 C114.174645,29.2509471 111.975239,30.9682916 108.751452,30.9682916 C104.352639,30.9682916 100.526275,27.9252776 100.526275,23.0142747 Z M2.90956522,3.636 L2.90956522,33.732 C2.90195652,34.3947 3.44080435,34.938 4.1131087,34.9455 C4.17884783,34.94625 4.24458696,34.94175 4.30956522,34.932 C6.82804348,34.55295 9.37071739,34.3524 11.9182609,34.332 C15.4471739,34.2717 18.9613261,34.7949 22.3147826,35.88 C14.7418478,34.9773 7.06041304,35.9976 0,38.844 L0,3.636 L2.90956522,3.636 Z M12.5147826,9.09494702e-13 C17.0678261,9.09494702e-13 23.3495652,1.032 27.7078261,5.88 L27.7443478,35.772 C25.2121739,34.14 20.2695652,31.944 11.9182609,31.944 C9.70397826,31.94895 7.49228261,32.0892 5.29565217,32.364 L5.29565217,0.792 C7.66591304,0.2715 10.0863913,0.00585 12.5147826,9.09494702e-13 Z M35.0078482,32.1773544 C35.560133,32.1773544 36.0078482,32.6250697 36.0078482,33.1773544 C36.0078482,33.7296392 35.560133,34.1773544 35.0078482,34.1773544 L33,34.1773544 C32.4477153,34.1773544 32,33.7296392 32,33.1773544 C32,32.6250697 32.4477153,32.1773544 33,32.1773544 L35.0078482,32.1773544 Z M41.0078482,32.1773544 C41.560133,32.1773544 42.0078482,32.6250697 42.0078482,33.1773544 C42.0078482,33.7296392 41.560133,34.1773544 41.0078482,34.1773544 L39,34.1773544 C38.4477153,34.1773544 38,33.7296392 38,33.1773544 C38,32.6250697 38.4477153,32.1773544 39,32.1773544 L41.0078482,32.1773544 Z M57.0281647,32.1773544 C57.5804494,32.1773544 58.0281647,32.6250697 58.0281647,33.1773544 C58.0281647,33.7296392 57.5804494,34.1773544 57.0281647,34.1773544 L45,34.1773544 C44.4477153,34.1773544 44,33.7296392 44,33.1773544 C44,32.6250697 44.4477153,32.1773544 45,32.1773544 L57.0281647,32.1773544 Z M123.394074,15 C125.533222,15 128.666623,15.8436079 128.666623,18.0731429 L128.666623,19.9110029 L126.105671,19.9110029 L126.105671,18.9167508 C126.105671,17.9827564 124.900516,17.3500505 123.424203,17.3500505 C121.978018,17.3500505 120.712606,17.9526275 120.712606,19.1879104 C120.712606,20.6340953 122.399822,21.2366724 124.237682,21.8693783 C126.587732,22.6527284 129.2692,23.6469806 129.2692,26.4790927 C129.2692,29.3714625 126.617861,30.9682916 123.153043,30.9682916 C120.381189,30.9682916 117.18753,29.7330087 117.18753,27.3227005 L117.18753,25.6957425 L119.748483,25.6957425 L119.748483,26.6899946 C119.748483,27.9855353 121.556214,28.5881123 123.24343,28.5881123 C124.960774,28.5881123 126.316572,27.8951487 126.316572,26.6297369 C126.316572,25.0931655 124.629357,24.6111038 122.520337,23.8578825 C120.260673,23.0142747 117.759978,21.9898937 117.759978,19.2180393 C117.759978,16.2051541 120.742735,15 123.394074,15 Z M41.0421854,27.1773544 C41.5944701,27.1773544 42.0421854,27.6250697 42.0421854,28.1773544 C42.0421854,28.7296392 41.5944701,29.1773544 41.0421854,29.1773544 L33,29.1773544 C32.4477153,29.1773544 32,28.7296392 32,28.1773544 C32,27.6250697 32.4477153,27.1773544 33,27.1773544 L41.0421854,27.1773544 Z M47.0421854,27.1773544 C47.5944701,27.1773544 48.0421854,27.6250697 48.0421854,28.1773544 C48.0421854,28.7296392 47.5944701,29.1773544 47.0421854,29.1773544 L44.9923133,29.1773544 C44.4400285,29.1773544 43.9923133,28.7296392 43.9923133,28.1773544 C43.9923133,27.6250697 44.4400285,27.1773544 44.9923133,27.1773544 L47.0421854,27.1773544 Z M57.0026173,27.1773544 C57.554902,27.1773544 58.0026173,27.6250697 58.0026173,28.1773544 C58.0026173,28.7296392 57.554902,29.1773544 57.0026173,29.1773544 L50.9923133,29.1773544 C50.4400285,29.1773544 49.9923133,28.7296392 49.9923133,28.1773544 C49.9923133,27.6250697 50.4400285,27.1773544 50.9923133,27.1773544 L57.0026173,27.1773544 Z M35,22.1773544 C35.5522847,22.1773544 36,22.6250697 36,23.1773544 C36,23.7296392 35.5522847,24.1773544 35,24.1773544 L33,24.1773544 C32.4477153,24.1773544 32,23.7296392 32,23.1773544 C32,22.6250697 32.4477153,22.1773544 33,22.1773544 L35,22.1773544 Z M57.0008737,22.1773544 C57.5531585,22.1773544 58.0008737,22.6250697 58.0008737,23.1773544 C58.0008737,23.7296392 57.5531585,24.1773544 57.0008737,24.1773544 L39,24.1773544 C38.4477153,24.1773544 38,23.7296392 38,23.1773544 C38,22.6250697 38.4477153,22.1773544 39,22.1773544 L57.0008737,22.1773544 Z M45.0013105,17.1773544 C45.5535953,17.1773544 46.0013105,17.6250697 46.0013105,18.1773544 C46.0013105,18.7296392 45.5535953,19.1773544 45.0013105,19.1773544 L33,19.1773544 C32.4477153,19.1773544 32,18.7296392 32,18.1773544 C32,17.6250697 32.4477153,17.1773544 33,17.1773544 L45.0013105,17.1773544 Z M51.0013105,17.1773544 C51.5535953,17.1773544 52.0013105,17.6250697 52.0013105,18.1773544 C52.0013105,18.7296392 51.5535953,19.1773544 51.0013105,19.1773544 L48.9921569,19.1773544 C48.4398721,19.1773544 47.9921569,18.7296392 47.9921569,18.1773544 C47.9921569,17.6250697 48.4398721,17.1773544 48.9921569,17.1773544 L51.0013105,17.1773544 Z M57.0013105,17.1773544 C57.5535953,17.1773544 58.0013105,17.6250697 58.0013105,18.1773544 C58.0013105,18.7296392 57.5535953,19.1773544 57.0013105,19.1773544 L54.9921569,19.1773544 C54.4398721,19.1773544 53.9921569,18.7296392 53.9921569,18.1773544 C53.9921569,17.6250697 54.4398721,17.1773544 54.9921569,17.1773544 L57.0013105,17.1773544 Z M41,12.1773544 C41.5522847,12.1773544 42,12.6250697 42,13.1773544 C42,13.7296392 41.5522847,14.1773544 41,14.1773544 L33,14.1773544 C32.4477153,14.1773544 32,13.7296392 32,13.1773544 C32,12.6250697 32.4477153,12.1773544 33,12.1773544 L41,12.1773544 Z M57.0014297,12.1773544 C57.5537144,12.1773544 58.0014297,12.6250697 58.0014297,13.1773544 C58.0014297,13.7296392 57.5537144,14.1773544 57.0014297,14.1773544 L45,14.1773544 C44.4477153,14.1773544 44,13.7296392 44,13.1773544 C44,12.6250697 44.4477153,12.1773544 45,12.1773544 L57.0014297,12.1773544 Z M49,7.17735443 C49.5522847,7.17735443 50,7.62506968 50,8.17735443 C50,8.72963918 49.5522847,9.17735443 49,9.17735443 L33,9.17735443 C32.4477153,9.17735443 32,8.72963918 32,8.17735443 C32,7.62506968 32.4477153,7.17735443 33,7.17735443 L49,7.17735443 Z M57,7.17735443 C57.5522847,7.17735443 58,7.62506968 58,8.17735443 C58,8.72963918 57.5522847,9.17735443 57,9.17735443 L53,9.17735443 C52.4477153,9.17735443 52,8.72963918 52,8.17735443 C52,7.62506968 52.4477153,7.17735443 53,7.17735443 L57,7.17735443 Z" id="Logo"></path>
            </g>
            <text id="Proudly-Powered-By" font-family="Museo-500, Museo" font-size="12" font-weight="normal">
                <tspan x="23.368" y="18">Proudly </tspan>
                <tspan x="0.148" y="32">Powered By</tspan>
            </text>
        </g>
    </g>
</svg>