<?xml version="1.0" encoding="utf-8"?>
<!-- Generator: Adobe Illustrator 19.1.0, SVG Export Plug-In . SVG Version: 6.00 Build 0)  -->
<!DOCTYPE svg PUBLIC "-//W3C//DTD SVG 1.1//EN" "http://www.w3.org/Graphics/SVG/1.1/DTD/svg11.dtd">
<svg version="1.1" id="Layer_1" xmlns="http://www.w3.org/2000/svg" xmlns:xlink="http://www.w3.org/1999/xlink" x="0px" y="0px"
	 width="15px" height="15px" viewBox="0 0 15 15" style="enable-background:new 0 0 15 15;" xml:space="preserve">
<style type="text/css">
	.st0{fill:#CEEAEF;}
	.st1{fill:#0094BC;}
	.st2{fill:#CEEAEF;stroke:#0094BC;stroke-width:2;stroke-miterlimit:10;}
	.st3{fill:none;stroke:#0094BC;stroke-width:2;stroke-miterlimit:10;}
	.st4{fill:#6D6D6D;}
	.st5{opacity:0.46;}
	.st6{fill:#919191;}
	.st7{fill:#B5B5B5;}
	.st8{fill:#6D6E70;}
	.st9{fill:#AAAAAA;}
	.st10{fill:#FFFFFF;}
	.st11{fill:#898989;}
	.st12{fill:#EDEDED;}
	.st13{fill:#BABABA;}
</style>
<g>
	<path class="st9" d="M15,5.6H9.4l2.1-2.1c-1.1-1.1-2.5-1.6-4-1.6s-2.9,0.6-4,1.6C2.5,4.6,1.9,6,1.9,7.5c0,1.5,0.6,2.9,1.6,4
		c1.1,1.1,2.5,1.6,4,1.6s2.9-0.6,4-1.6c0.1-0.1,0.2-0.2,0.3-0.3l1.4,1.2C11.7,14,9.7,15,7.5,15C3.4,15,0,11.6,0,7.5
		C0,3.4,3.4,0,7.5,0c2.1,0,3.9,0.8,5.3,2.2L15,0V5.6z"/>
</g>
</svg>
