<?xml version="1.0" encoding="utf-8"?>
<!-- Generator: Adobe Illustrator 19.1.0, SVG Export Plug-In . SVG Version: 6.00 Build 0)  -->
<!DOCTYPE svg PUBLIC "-//W3C//DTD SVG 1.1//EN" "http://www.w3.org/Graphics/SVG/1.1/DTD/svg11.dtd">
<svg version="1.1" id="Layer_1" xmlns="http://www.w3.org/2000/svg" xmlns:xlink="http://www.w3.org/1999/xlink" x="0px" y="0px"
	 width="14.6px" height="13.9px" viewBox="0 0 14.6 13.9" style="enable-background:new 0 0 14.6 13.9;" xml:space="preserve">
<style type="text/css">
	.st0{fill:#CEEAEF;}
	.st1{fill:#0094BC;}
	.st2{fill:#CEEAEF;stroke:#0094BC;stroke-width:2;stroke-miterlimit:10;}
	.st3{fill:none;stroke:#0094BC;stroke-width:2;stroke-miterlimit:10;}
	.st4{fill:#6D6D6D;}
	.st5{opacity:0.46;}
	.st6{fill:#919191;}
	.st7{fill:#B5B5B5;}
	.st8{fill:#6D6E70;}
	.st9{fill:#AAAAAA;}
	.st10{fill:#FFFFFF;}
	.st11{fill:#898989;}
	.st12{fill:#EDEDED;}
	.st13{fill:#BABABA;}
</style>
<path class="st4" d="M14.6,12.7l-1.8-1.7l-1.4-1.4c0.7-1,1.2-2.2,1.2-3.5C12.6,2.7,9.8,0,6.3,0C2.8,0,0,2.7,0,6.1
	c0,3.3,2.8,6.1,6.3,6.1c1.4,0,2.8-0.5,3.8-1.3l2.4,2.4c0,0,0.1,0.1,0.1,0.1l0.6,0.6L14.6,12.7z M6.3,10.7c-2.7,0-4.8-2.1-4.8-4.6
	c0-2.6,2.2-4.6,4.8-4.6c2.7,0,4.8,2.1,4.8,4.6c0,1.1-0.4,2-1,2.8C9.9,9.2,9.7,9.4,9.4,9.6C8.6,10.3,7.5,10.7,6.3,10.7z"/>
</svg>
